<svg width="920" height="519" viewBox="0 0 920 519" fill="none" xmlns="http://www.w3.org/2000/svg">
<g clip-path="url(#clip0_456_7244)">
<path fill-rule="evenodd" clip-rule="evenodd" d="M0 0.697266H920V518.197H0V0.697266Z" fill="#EBF2F3"/>
<path fill-rule="evenodd" clip-rule="evenodd" d="M39.9805 263.01H67.2666V286.222H39.9805V263.01Z" fill="#CFE2F3"/>
<path fill-rule="evenodd" clip-rule="evenodd" d="M39.9805 263.01H67.2666V286.222H39.9805V263.01Z" stroke="#161616" stroke-miterlimit="10" stroke-linejoin="round" stroke-dasharray="1 3"/>
<path fill-rule="evenodd" clip-rule="evenodd" d="M73.5742 263.01H100.86V286.222H73.5742V263.01Z" fill="#CFE2F3"/>
<path fill-rule="evenodd" clip-rule="evenodd" d="M73.5742 263.01H100.86V286.222H73.5742V263.01Z" stroke="#161616" stroke-miterlimit="10" stroke-linejoin="round" stroke-dasharray="1 3"/>
<path fill-rule="evenodd" clip-rule="evenodd" d="M107.168 263.01H134.454V286.222H107.168V263.01Z" fill="#CFE2F3"/>
<path fill-rule="evenodd" clip-rule="evenodd" d="M107.168 263.01H134.454V286.222H107.168V263.01Z" stroke="#161616" stroke-miterlimit="10" stroke-linejoin="round" stroke-dasharray="1 3"/>
<path fill-rule="evenodd" clip-rule="evenodd" d="M140.762 263.01H168.048V286.222H140.762V263.01Z" fill="#CFE2F3"/>
<path fill-rule="evenodd" clip-rule="evenodd" d="M140.762 263.01H168.048V286.222H140.762V263.01Z" stroke="#161616" stroke-miterlimit="10" stroke-linejoin="round" stroke-dasharray="1 3"/>
<path fill-rule="evenodd" clip-rule="evenodd" d="M174.355 263.01H201.642V286.222H174.355V263.01Z" fill="#CFE2F3"/>
<path fill-rule="evenodd" clip-rule="evenodd" d="M174.355 263.01H201.642V286.222H174.355V263.01Z" stroke="#161616" stroke-miterlimit="10" stroke-linejoin="round" stroke-dasharray="1 3"/>
<path fill-rule="evenodd" clip-rule="evenodd" d="M207.949 263.01H235.235V286.222H207.949V263.01Z" fill="#CFE2F3"/>
<path fill-rule="evenodd" clip-rule="evenodd" d="M207.949 263.01H235.235V286.222H207.949V263.01Z" stroke="#161616" stroke-miterlimit="10" stroke-linejoin="round" stroke-dasharray="1 3"/>
<path fill-rule="evenodd" clip-rule="evenodd" d="M241.543 263.01H268.829V286.222H241.543V263.01Z" fill="#CFE2F3"/>
<path fill-rule="evenodd" clip-rule="evenodd" d="M241.543 263.01H268.829V286.222H241.543V263.01Z" stroke="#161616" stroke-miterlimit="10" stroke-linejoin="round" stroke-dasharray="1 3"/>
<path fill-rule="evenodd" clip-rule="evenodd" d="M275.137 263.01H302.423V286.222H275.137V263.01Z" fill="#CFE2F3"/>
<path fill-rule="evenodd" clip-rule="evenodd" d="M275.137 263.01H302.423V286.222H275.137V263.01Z" stroke="#161616" stroke-miterlimit="10" stroke-linejoin="round" stroke-dasharray="1 3"/>
<path fill-rule="evenodd" clip-rule="evenodd" d="M308.73 263.01H336.017V286.222H308.73V263.01Z" fill="#CFE2F3"/>
<path fill-rule="evenodd" clip-rule="evenodd" d="M308.73 263.01H336.017V286.222H308.73V263.01Z" stroke="#161616" stroke-miterlimit="10" stroke-linejoin="round" stroke-dasharray="1 3"/>
<path fill-rule="evenodd" clip-rule="evenodd" d="M342.324 263.01H369.61V286.222H342.324V263.01Z" fill="#CFE2F3"/>
<path fill-rule="evenodd" clip-rule="evenodd" d="M342.324 263.01H369.61V286.222H342.324V263.01Z" stroke="#161616" stroke-miterlimit="10" stroke-linejoin="round" stroke-dasharray="1 3"/>
<path fill-rule="evenodd" clip-rule="evenodd" d="M39.9805 297.422H67.2666V320.634H39.9805V297.422Z" fill="#CFE2F3"/>
<path fill-rule="evenodd" clip-rule="evenodd" d="M39.9805 297.422H67.2666V320.634H39.9805V297.422Z" stroke="#161616" stroke-miterlimit="10" stroke-linejoin="round" stroke-dasharray="1 3"/>
<path fill-rule="evenodd" clip-rule="evenodd" d="M73.5742 297.422H100.86V320.633H73.5742V297.422Z" fill="#CFE2F3"/>
<path fill-rule="evenodd" clip-rule="evenodd" d="M73.5742 297.422H100.86V320.633H73.5742V297.422Z" stroke="#161616" stroke-miterlimit="10" stroke-linejoin="round" stroke-dasharray="1 3"/>
<path fill-rule="evenodd" clip-rule="evenodd" d="M107.168 297.422H134.454V320.634H107.168V297.422Z" fill="#CFE2F3"/>
<path fill-rule="evenodd" clip-rule="evenodd" d="M107.168 297.422H134.454V320.634H107.168V297.422Z" stroke="#161616" stroke-miterlimit="10" stroke-linejoin="round" stroke-dasharray="1 3"/>
<path fill-rule="evenodd" clip-rule="evenodd" d="M140.762 297.422H168.048V320.633H140.762V297.422Z" fill="#CFE2F3"/>
<path fill-rule="evenodd" clip-rule="evenodd" d="M140.762 297.422H168.048V320.633H140.762V297.422Z" stroke="#161616" stroke-miterlimit="10" stroke-linejoin="round" stroke-dasharray="1 3"/>
<path fill-rule="evenodd" clip-rule="evenodd" d="M174.355 297.422H201.642V320.634H174.355V297.422Z" fill="#CFE2F3"/>
<path fill-rule="evenodd" clip-rule="evenodd" d="M174.355 297.422H201.642V320.634H174.355V297.422Z" stroke="#161616" stroke-miterlimit="10" stroke-linejoin="round" stroke-dasharray="1 3"/>
<path fill-rule="evenodd" clip-rule="evenodd" d="M207.949 297.422H235.235V320.634H207.949V297.422Z" fill="#CFE2F3"/>
<path fill-rule="evenodd" clip-rule="evenodd" d="M207.949 297.422H235.235V320.634H207.949V297.422Z" stroke="#161616" stroke-miterlimit="10" stroke-linejoin="round" stroke-dasharray="1 3"/>
<path fill-rule="evenodd" clip-rule="evenodd" d="M241.543 297.422H268.829V320.633H241.543V297.422Z" fill="#CFE2F3"/>
<path fill-rule="evenodd" clip-rule="evenodd" d="M241.543 297.422H268.829V320.633H241.543V297.422Z" stroke="#161616" stroke-miterlimit="10" stroke-linejoin="round" stroke-dasharray="1 3"/>
<path fill-rule="evenodd" clip-rule="evenodd" d="M275.137 297.422H302.423V320.634H275.137V297.422Z" fill="#CFE2F3"/>
<path fill-rule="evenodd" clip-rule="evenodd" d="M275.137 297.422H302.423V320.634H275.137V297.422Z" stroke="#161616" stroke-miterlimit="10" stroke-linejoin="round" stroke-dasharray="1 3"/>
<path fill-rule="evenodd" clip-rule="evenodd" d="M308.73 297.422H336.017V320.633H308.73V297.422Z" fill="#CFE2F3"/>
<path fill-rule="evenodd" clip-rule="evenodd" d="M308.73 297.422H336.017V320.633H308.73V297.422Z" stroke="#161616" stroke-miterlimit="10" stroke-linejoin="round" stroke-dasharray="1 3"/>
<path fill-rule="evenodd" clip-rule="evenodd" d="M342.324 297.422H369.61V320.634H342.324V297.422Z" fill="#CFE2F3"/>
<path fill-rule="evenodd" clip-rule="evenodd" d="M342.324 297.422H369.61V320.634H342.324V297.422Z" stroke="#161616" stroke-miterlimit="10" stroke-linejoin="round" stroke-dasharray="1 3"/>
<path fill-rule="evenodd" clip-rule="evenodd" d="M39.9805 331.834H67.2666V355.046H39.9805V331.834Z" fill="#CFE2F3"/>
<path fill-rule="evenodd" clip-rule="evenodd" d="M39.9805 331.834H67.2666V355.046H39.9805V331.834Z" stroke="#161616" stroke-miterlimit="10" stroke-linejoin="round" stroke-dasharray="1 3"/>
<path fill-rule="evenodd" clip-rule="evenodd" d="M73.5742 331.834H100.86V355.045H73.5742V331.834Z" fill="#CFE2F3"/>
<path fill-rule="evenodd" clip-rule="evenodd" d="M73.5742 331.834H100.86V355.045H73.5742V331.834Z" stroke="#161616" stroke-miterlimit="10" stroke-linejoin="round" stroke-dasharray="1 3"/>
<path fill-rule="evenodd" clip-rule="evenodd" d="M107.168 331.834H134.454V355.046H107.168V331.834Z" fill="#CFE2F3"/>
<path fill-rule="evenodd" clip-rule="evenodd" d="M107.168 331.834H134.454V355.046H107.168V331.834Z" stroke="#161616" stroke-miterlimit="10" stroke-linejoin="round" stroke-dasharray="1 3"/>
<path fill-rule="evenodd" clip-rule="evenodd" d="M140.762 331.834H168.048V355.045H140.762V331.834Z" fill="#CFE2F3"/>
<path fill-rule="evenodd" clip-rule="evenodd" d="M140.762 331.834H168.048V355.045H140.762V331.834Z" stroke="#161616" stroke-miterlimit="10" stroke-linejoin="round" stroke-dasharray="1 3"/>
<path fill-rule="evenodd" clip-rule="evenodd" d="M174.355 331.834H201.642V355.046H174.355V331.834Z" fill="#CFE2F3"/>
<path fill-rule="evenodd" clip-rule="evenodd" d="M174.355 331.834H201.642V355.046H174.355V331.834Z" stroke="#161616" stroke-miterlimit="10" stroke-linejoin="round" stroke-dasharray="1 3"/>
<path fill-rule="evenodd" clip-rule="evenodd" d="M207.949 331.834H235.235V355.046H207.949V331.834Z" fill="#CFE2F3"/>
<path fill-rule="evenodd" clip-rule="evenodd" d="M207.949 331.834H235.235V355.046H207.949V331.834Z" stroke="#161616" stroke-miterlimit="10" stroke-linejoin="round" stroke-dasharray="1 3"/>
<path fill-rule="evenodd" clip-rule="evenodd" d="M241.543 331.834H268.829V355.045H241.543V331.834Z" fill="#CFE2F3"/>
<path fill-rule="evenodd" clip-rule="evenodd" d="M241.543 331.834H268.829V355.045H241.543V331.834Z" stroke="#161616" stroke-miterlimit="10" stroke-linejoin="round" stroke-dasharray="1 3"/>
<path fill-rule="evenodd" clip-rule="evenodd" d="M275.137 331.834H302.423V355.046H275.137V331.834Z" fill="#CFE2F3"/>
<path fill-rule="evenodd" clip-rule="evenodd" d="M275.137 331.834H302.423V355.046H275.137V331.834Z" stroke="#161616" stroke-miterlimit="10" stroke-linejoin="round" stroke-dasharray="1 3"/>
<path fill-rule="evenodd" clip-rule="evenodd" d="M308.73 331.834H336.017V355.045H308.73V331.834Z" fill="#CFE2F3"/>
<path fill-rule="evenodd" clip-rule="evenodd" d="M308.73 331.834H336.017V355.045H308.73V331.834Z" stroke="#161616" stroke-miterlimit="10" stroke-linejoin="round" stroke-dasharray="1 3"/>
<path fill-rule="evenodd" clip-rule="evenodd" d="M342.324 331.834H369.61V355.046H342.324V331.834Z" fill="#CFE2F3"/>
<path fill-rule="evenodd" clip-rule="evenodd" d="M342.324 331.834H369.61V355.046H342.324V331.834Z" stroke="#161616" stroke-miterlimit="10" stroke-linejoin="round" stroke-dasharray="1 3"/>
<path fill-rule="evenodd" clip-rule="evenodd" d="M39.9805 366.246H67.2666V389.457H39.9805V366.246Z" fill="#CFE2F3"/>
<path fill-rule="evenodd" clip-rule="evenodd" d="M39.9805 366.246H67.2666V389.457H39.9805V366.246Z" stroke="#161616" stroke-miterlimit="10" stroke-linejoin="round" stroke-dasharray="1 3"/>
<path fill-rule="evenodd" clip-rule="evenodd" d="M73.5742 366.246H100.86V389.457H73.5742V366.246Z" fill="#CFE2F3"/>
<path fill-rule="evenodd" clip-rule="evenodd" d="M73.5742 366.246H100.86V389.457H73.5742V366.246Z" stroke="#161616" stroke-miterlimit="10" stroke-linejoin="round" stroke-dasharray="1 3"/>
<path fill-rule="evenodd" clip-rule="evenodd" d="M107.168 366.246H134.454V389.457H107.168V366.246Z" fill="#CFE2F3"/>
<path fill-rule="evenodd" clip-rule="evenodd" d="M107.168 366.246H134.454V389.457H107.168V366.246Z" stroke="#161616" stroke-miterlimit="10" stroke-linejoin="round" stroke-dasharray="1 3"/>
<path fill-rule="evenodd" clip-rule="evenodd" d="M140.762 366.246H168.048V389.457H140.762V366.246Z" fill="#CFE2F3"/>
<path fill-rule="evenodd" clip-rule="evenodd" d="M140.762 366.246H168.048V389.457H140.762V366.246Z" stroke="#161616" stroke-miterlimit="10" stroke-linejoin="round" stroke-dasharray="1 3"/>
<path fill-rule="evenodd" clip-rule="evenodd" d="M174.355 366.246H201.642V389.457H174.355V366.246Z" fill="#CFE2F3"/>
<path fill-rule="evenodd" clip-rule="evenodd" d="M174.355 366.246H201.642V389.457H174.355V366.246Z" stroke="#161616" stroke-miterlimit="10" stroke-linejoin="round" stroke-dasharray="1 3"/>
<path fill-rule="evenodd" clip-rule="evenodd" d="M207.949 366.246H235.235V389.457H207.949V366.246Z" fill="#CFE2F3"/>
<path fill-rule="evenodd" clip-rule="evenodd" d="M207.949 366.246H235.235V389.457H207.949V366.246Z" stroke="#161616" stroke-miterlimit="10" stroke-linejoin="round" stroke-dasharray="1 3"/>
<path fill-rule="evenodd" clip-rule="evenodd" d="M241.543 366.246H268.829V389.457H241.543V366.246Z" fill="#CFE2F3"/>
<path fill-rule="evenodd" clip-rule="evenodd" d="M241.543 366.246H268.829V389.457H241.543V366.246Z" stroke="#161616" stroke-miterlimit="10" stroke-linejoin="round" stroke-dasharray="1 3"/>
<path fill-rule="evenodd" clip-rule="evenodd" d="M275.137 366.246H302.423V389.457H275.137V366.246Z" fill="#CFE2F3"/>
<path fill-rule="evenodd" clip-rule="evenodd" d="M275.137 366.246H302.423V389.457H275.137V366.246Z" stroke="#161616" stroke-miterlimit="10" stroke-linejoin="round" stroke-dasharray="1 3"/>
<path fill-rule="evenodd" clip-rule="evenodd" d="M308.73 366.246H336.017V389.457H308.73V366.246Z" fill="#CFE2F3"/>
<path fill-rule="evenodd" clip-rule="evenodd" d="M308.73 366.246H336.017V389.457H308.73V366.246Z" stroke="#161616" stroke-miterlimit="10" stroke-linejoin="round" stroke-dasharray="1 3"/>
<path fill-rule="evenodd" clip-rule="evenodd" d="M342.324 366.246H369.61V389.457H342.324V366.246Z" fill="#CFE2F3"/>
<path fill-rule="evenodd" clip-rule="evenodd" d="M342.324 366.246H369.61V389.457H342.324V366.246Z" stroke="#161616" stroke-miterlimit="10" stroke-linejoin="round" stroke-dasharray="1 3"/>
<path fill-rule="evenodd" clip-rule="evenodd" d="M39.9805 400.658H67.2666V423.869H39.9805V400.658Z" fill="#CFE2F3"/>
<path fill-rule="evenodd" clip-rule="evenodd" d="M39.9805 400.658H67.2666V423.869H39.9805V400.658Z" stroke="#161616" stroke-miterlimit="10" stroke-linejoin="round" stroke-dasharray="1 3"/>
<path fill-rule="evenodd" clip-rule="evenodd" d="M73.5742 400.658H100.86V423.869H73.5742V400.658Z" fill="#CFE2F3"/>
<path fill-rule="evenodd" clip-rule="evenodd" d="M73.5742 400.658H100.86V423.869H73.5742V400.658Z" stroke="#161616" stroke-miterlimit="10" stroke-linejoin="round" stroke-dasharray="1 3"/>
<path fill-rule="evenodd" clip-rule="evenodd" d="M107.168 400.658H134.454V423.869H107.168V400.658Z" fill="#CFE2F3"/>
<path fill-rule="evenodd" clip-rule="evenodd" d="M107.168 400.658H134.454V423.869H107.168V400.658Z" stroke="#161616" stroke-miterlimit="10" stroke-linejoin="round" stroke-dasharray="1 3"/>
<path fill-rule="evenodd" clip-rule="evenodd" d="M140.762 400.658H168.048V423.869H140.762V400.658Z" fill="#CFE2F3"/>
<path fill-rule="evenodd" clip-rule="evenodd" d="M140.762 400.658H168.048V423.869H140.762V400.658Z" stroke="#161616" stroke-miterlimit="10" stroke-linejoin="round" stroke-dasharray="1 3"/>
<path fill-rule="evenodd" clip-rule="evenodd" d="M174.355 400.658H201.642V423.869H174.355V400.658Z" fill="#CFE2F3"/>
<path fill-rule="evenodd" clip-rule="evenodd" d="M174.355 400.658H201.642V423.869H174.355V400.658Z" stroke="#161616" stroke-miterlimit="10" stroke-linejoin="round" stroke-dasharray="1 3"/>
<path fill-rule="evenodd" clip-rule="evenodd" d="M207.949 400.658H235.235V423.869H207.949V400.658Z" fill="#CFE2F3"/>
<path fill-rule="evenodd" clip-rule="evenodd" d="M207.949 400.658H235.235V423.869H207.949V400.658Z" stroke="#161616" stroke-miterlimit="10" stroke-linejoin="round" stroke-dasharray="1 3"/>
<path fill-rule="evenodd" clip-rule="evenodd" d="M241.543 400.658H268.829V423.869H241.543V400.658Z" fill="#CFE2F3"/>
<path fill-rule="evenodd" clip-rule="evenodd" d="M241.543 400.658H268.829V423.869H241.543V400.658Z" stroke="#161616" stroke-miterlimit="10" stroke-linejoin="round" stroke-dasharray="1 3"/>
<path fill-rule="evenodd" clip-rule="evenodd" d="M275.137 400.658H302.423V423.869H275.137V400.658Z" fill="#CFE2F3"/>
<path fill-rule="evenodd" clip-rule="evenodd" d="M275.137 400.658H302.423V423.869H275.137V400.658Z" stroke="#161616" stroke-miterlimit="10" stroke-linejoin="round" stroke-dasharray="1 3"/>
<path fill-rule="evenodd" clip-rule="evenodd" d="M308.73 400.658H336.017V423.869H308.73V400.658Z" fill="#CFE2F3"/>
<path fill-rule="evenodd" clip-rule="evenodd" d="M308.73 400.658H336.017V423.869H308.73V400.658Z" stroke="#161616" stroke-miterlimit="10" stroke-linejoin="round" stroke-dasharray="1 3"/>
<path fill-rule="evenodd" clip-rule="evenodd" d="M342.324 400.658H369.61V423.869H342.324V400.658Z" fill="#CFE2F3"/>
<path fill-rule="evenodd" clip-rule="evenodd" d="M342.324 400.658H369.61V423.869H342.324V400.658Z" stroke="#161616" stroke-miterlimit="10" stroke-linejoin="round" stroke-dasharray="1 3"/>
<path fill-rule="evenodd" clip-rule="evenodd" d="M39.9805 435.07H67.2666V458.281H39.9805V435.07Z" fill="#CFE2F3"/>
<path fill-rule="evenodd" clip-rule="evenodd" d="M39.9805 435.07H67.2666V458.281H39.9805V435.07Z" stroke="#161616" stroke-miterlimit="10" stroke-linejoin="round" stroke-dasharray="1 3"/>
<path fill-rule="evenodd" clip-rule="evenodd" d="M548.223 256.49H575.509V279.701H548.223V256.49Z" fill="#F4CCCC"/>
<path fill-rule="evenodd" clip-rule="evenodd" d="M548.223 256.49H575.509V279.701H548.223V256.49Z" stroke="#161616" stroke-miterlimit="10" stroke-linejoin="round" stroke-dasharray="1 3"/>
<path fill-rule="evenodd" clip-rule="evenodd" d="M581.816 256.489H609.102V279.701H581.816V256.489Z" fill="#F4CCCC"/>
<path fill-rule="evenodd" clip-rule="evenodd" d="M581.816 256.489H609.102V279.701H581.816V256.489Z" stroke="#161616" stroke-miterlimit="10" stroke-linejoin="round" stroke-dasharray="1 3"/>
<path fill-rule="evenodd" clip-rule="evenodd" d="M615.41 256.49H642.696V279.701H615.41V256.49Z" fill="#F4CCCC"/>
<path fill-rule="evenodd" clip-rule="evenodd" d="M615.41 256.49H642.696V279.701H615.41V256.49Z" stroke="#161616" stroke-miterlimit="10" stroke-linejoin="round" stroke-dasharray="1 3"/>
<path fill-rule="evenodd" clip-rule="evenodd" d="M649.004 256.489H676.29V279.701H649.004V256.489Z" fill="#F4CCCC"/>
<path fill-rule="evenodd" clip-rule="evenodd" d="M649.004 256.489H676.29V279.701H649.004V256.489Z" stroke="#161616" stroke-miterlimit="10" stroke-linejoin="round" stroke-dasharray="1 3"/>
<path fill-rule="evenodd" clip-rule="evenodd" d="M682.598 256.49H709.884V279.701H682.598V256.49Z" fill="#F4CCCC"/>
<path fill-rule="evenodd" clip-rule="evenodd" d="M682.598 256.49H709.884V279.701H682.598V256.49Z" stroke="#161616" stroke-miterlimit="10" stroke-linejoin="round" stroke-dasharray="1 3"/>
<path fill-rule="evenodd" clip-rule="evenodd" d="M716.191 256.49H743.477V279.701H716.191V256.49Z" fill="#F4CCCC"/>
<path fill-rule="evenodd" clip-rule="evenodd" d="M716.191 256.49H743.477V279.701H716.191V256.49Z" stroke="#161616" stroke-miterlimit="10" stroke-linejoin="round" stroke-dasharray="1 3"/>
<path fill-rule="evenodd" clip-rule="evenodd" d="M749.785 256.489H777.071V279.701H749.785V256.489Z" fill="#F4CCCC"/>
<path fill-rule="evenodd" clip-rule="evenodd" d="M749.785 256.489H777.071V279.701H749.785V256.489Z" stroke="#161616" stroke-miterlimit="10" stroke-linejoin="round" stroke-dasharray="1 3"/>
<path fill-rule="evenodd" clip-rule="evenodd" d="M783.379 256.49H810.665V279.701H783.379V256.49Z" fill="#F4CCCC"/>
<path fill-rule="evenodd" clip-rule="evenodd" d="M783.379 256.49H810.665V279.701H783.379V256.49Z" stroke="#161616" stroke-miterlimit="10" stroke-linejoin="round" stroke-dasharray="1 3"/>
<path fill-rule="evenodd" clip-rule="evenodd" d="M816.973 256.489H844.259V279.701H816.973V256.489Z" fill="#F4CCCC"/>
<path fill-rule="evenodd" clip-rule="evenodd" d="M816.973 256.489H844.259V279.701H816.973V256.489Z" stroke="#161616" stroke-miterlimit="10" stroke-linejoin="round" stroke-dasharray="1 3"/>
<path fill-rule="evenodd" clip-rule="evenodd" d="M850.564 256.49H877.851V279.701H850.564V256.49Z" fill="#F4CCCC"/>
<path fill-rule="evenodd" clip-rule="evenodd" d="M850.564 256.49H877.851V279.701H850.564V256.49Z" stroke="#161616" stroke-miterlimit="10" stroke-linejoin="round" stroke-dasharray="1 3"/>
<path fill-rule="evenodd" clip-rule="evenodd" d="M548.223 290.901H575.509V314.113H548.223V290.901Z" fill="#F4CCCC"/>
<path fill-rule="evenodd" clip-rule="evenodd" d="M548.223 290.901H575.509V314.113H548.223V290.901Z" stroke="#161616" stroke-miterlimit="10" stroke-linejoin="round" stroke-dasharray="1 3"/>
<path fill-rule="evenodd" clip-rule="evenodd" d="M581.816 290.901H609.102V314.112H581.816V290.901Z" fill="#F4CCCC"/>
<path fill-rule="evenodd" clip-rule="evenodd" d="M581.816 290.901H609.102V314.112H581.816V290.901Z" stroke="#161616" stroke-miterlimit="10" stroke-linejoin="round" stroke-dasharray="1 3"/>
<path fill-rule="evenodd" clip-rule="evenodd" d="M615.41 290.901H642.696V314.113H615.41V290.901Z" fill="#F4CCCC"/>
<path fill-rule="evenodd" clip-rule="evenodd" d="M615.41 290.901H642.696V314.113H615.41V290.901Z" stroke="#161616" stroke-miterlimit="10" stroke-linejoin="round" stroke-dasharray="1 3"/>
<path fill-rule="evenodd" clip-rule="evenodd" d="M649.004 290.901H676.29V314.112H649.004V290.901Z" fill="#F4CCCC"/>
<path fill-rule="evenodd" clip-rule="evenodd" d="M649.004 290.901H676.29V314.112H649.004V290.901Z" stroke="#161616" stroke-miterlimit="10" stroke-linejoin="round" stroke-dasharray="1 3"/>
<path fill-rule="evenodd" clip-rule="evenodd" d="M682.598 290.901H709.884V314.113H682.598V290.901Z" fill="#F4CCCC"/>
<path fill-rule="evenodd" clip-rule="evenodd" d="M682.598 290.901H709.884V314.113H682.598V290.901Z" stroke="#161616" stroke-miterlimit="10" stroke-linejoin="round" stroke-dasharray="1 3"/>
<path fill-rule="evenodd" clip-rule="evenodd" d="M716.191 290.901H743.477V314.113H716.191V290.901Z" fill="#F4CCCC"/>
<path fill-rule="evenodd" clip-rule="evenodd" d="M716.191 290.901H743.477V314.113H716.191V290.901Z" stroke="#161616" stroke-miterlimit="10" stroke-linejoin="round" stroke-dasharray="1 3"/>
<path fill-rule="evenodd" clip-rule="evenodd" d="M749.785 290.901H777.071V314.112H749.785V290.901Z" fill="#F4CCCC"/>
<path fill-rule="evenodd" clip-rule="evenodd" d="M749.785 290.901H777.071V314.112H749.785V290.901Z" stroke="#161616" stroke-miterlimit="10" stroke-linejoin="round" stroke-dasharray="1 3"/>
<path fill-rule="evenodd" clip-rule="evenodd" d="M783.379 290.901H810.665V314.113H783.379V290.901Z" fill="#F4CCCC"/>
<path fill-rule="evenodd" clip-rule="evenodd" d="M783.379 290.901H810.665V314.113H783.379V290.901Z" stroke="#161616" stroke-miterlimit="10" stroke-linejoin="round" stroke-dasharray="1 3"/>
<path fill-rule="evenodd" clip-rule="evenodd" d="M816.973 290.901H844.259V314.112H816.973V290.901Z" fill="#F4CCCC"/>
<path fill-rule="evenodd" clip-rule="evenodd" d="M816.973 290.901H844.259V314.112H816.973V290.901Z" stroke="#161616" stroke-miterlimit="10" stroke-linejoin="round" stroke-dasharray="1 3"/>
<path fill-rule="evenodd" clip-rule="evenodd" d="M850.564 290.901H877.851V314.113H850.564V290.901Z" fill="#F4CCCC"/>
<path fill-rule="evenodd" clip-rule="evenodd" d="M850.564 290.901H877.851V314.113H850.564V290.901Z" stroke="#161616" stroke-miterlimit="10" stroke-linejoin="round" stroke-dasharray="1 3"/>
<path fill-rule="evenodd" clip-rule="evenodd" d="M548.223 325.313H575.509V348.525H548.223V325.313Z" fill="#F4CCCC"/>
<path fill-rule="evenodd" clip-rule="evenodd" d="M548.223 325.313H575.509V348.525H548.223V325.313Z" stroke="#161616" stroke-miterlimit="10" stroke-linejoin="round" stroke-dasharray="1 3"/>
<path fill-rule="evenodd" clip-rule="evenodd" d="M581.816 325.313H609.102V348.524H581.816V325.313Z" fill="#F4CCCC"/>
<path fill-rule="evenodd" clip-rule="evenodd" d="M581.816 325.313H609.102V348.524H581.816V325.313Z" stroke="#161616" stroke-miterlimit="10" stroke-linejoin="round" stroke-dasharray="1 3"/>
<path fill-rule="evenodd" clip-rule="evenodd" d="M615.41 325.313H642.696V348.525H615.41V325.313Z" fill="#F4CCCC"/>
<path fill-rule="evenodd" clip-rule="evenodd" d="M615.41 325.313H642.696V348.525H615.41V325.313Z" stroke="#161616" stroke-miterlimit="10" stroke-linejoin="round" stroke-dasharray="1 3"/>
<path fill-rule="evenodd" clip-rule="evenodd" d="M649.004 325.313H676.29V348.524H649.004V325.313Z" fill="#F4CCCC"/>
<path fill-rule="evenodd" clip-rule="evenodd" d="M649.004 325.313H676.29V348.524H649.004V325.313Z" stroke="#161616" stroke-miterlimit="10" stroke-linejoin="round" stroke-dasharray="1 3"/>
<path fill-rule="evenodd" clip-rule="evenodd" d="M682.598 325.313H709.884V348.525H682.598V325.313Z" fill="#F4CCCC"/>
<path fill-rule="evenodd" clip-rule="evenodd" d="M682.598 325.313H709.884V348.525H682.598V325.313Z" stroke="#161616" stroke-miterlimit="10" stroke-linejoin="round" stroke-dasharray="1 3"/>
<path fill-rule="evenodd" clip-rule="evenodd" d="M716.191 325.313H743.477V348.525H716.191V325.313Z" fill="#F4CCCC"/>
<path fill-rule="evenodd" clip-rule="evenodd" d="M716.191 325.313H743.477V348.525H716.191V325.313Z" stroke="#161616" stroke-miterlimit="10" stroke-linejoin="round" stroke-dasharray="1 3"/>
<path fill-rule="evenodd" clip-rule="evenodd" d="M749.785 325.313H777.071V348.524H749.785V325.313Z" fill="#F4CCCC"/>
<path fill-rule="evenodd" clip-rule="evenodd" d="M749.785 325.313H777.071V348.524H749.785V325.313Z" stroke="#161616" stroke-miterlimit="10" stroke-linejoin="round" stroke-dasharray="1 3"/>
<path fill-rule="evenodd" clip-rule="evenodd" d="M783.379 325.313H810.665V348.525H783.379V325.313Z" fill="#F4CCCC"/>
<path fill-rule="evenodd" clip-rule="evenodd" d="M783.379 325.313H810.665V348.525H783.379V325.313Z" stroke="#161616" stroke-miterlimit="10" stroke-linejoin="round" stroke-dasharray="1 3"/>
<path fill-rule="evenodd" clip-rule="evenodd" d="M816.973 325.313H844.259V348.524H816.973V325.313Z" fill="#F4CCCC"/>
<path fill-rule="evenodd" clip-rule="evenodd" d="M816.973 325.313H844.259V348.524H816.973V325.313Z" stroke="#161616" stroke-miterlimit="10" stroke-linejoin="round" stroke-dasharray="1 3"/>
<path fill-rule="evenodd" clip-rule="evenodd" d="M850.564 325.313H877.851V348.525H850.564V325.313Z" fill="#F4CCCC"/>
<path fill-rule="evenodd" clip-rule="evenodd" d="M850.564 325.313H877.851V348.525H850.564V325.313Z" stroke="#161616" stroke-miterlimit="10" stroke-linejoin="round" stroke-dasharray="1 3"/>
<path fill-rule="evenodd" clip-rule="evenodd" d="M548.223 359.725H575.509V382.937H548.223V359.725Z" fill="#F4CCCC"/>
<path fill-rule="evenodd" clip-rule="evenodd" d="M548.223 359.725H575.509V382.937H548.223V359.725Z" stroke="#161616" stroke-miterlimit="10" stroke-linejoin="round" stroke-dasharray="1 3"/>
<path fill-rule="evenodd" clip-rule="evenodd" d="M581.816 359.725H609.102V382.936H581.816V359.725Z" fill="#F4CCCC"/>
<path fill-rule="evenodd" clip-rule="evenodd" d="M581.816 359.725H609.102V382.936H581.816V359.725Z" stroke="#161616" stroke-miterlimit="10" stroke-linejoin="round" stroke-dasharray="1 3"/>
<path fill-rule="evenodd" clip-rule="evenodd" d="M615.41 359.725H642.696V382.937H615.41V359.725Z" fill="#F4CCCC"/>
<path fill-rule="evenodd" clip-rule="evenodd" d="M615.41 359.725H642.696V382.937H615.41V359.725Z" stroke="#161616" stroke-miterlimit="10" stroke-linejoin="round" stroke-dasharray="1 3"/>
<path fill-rule="evenodd" clip-rule="evenodd" d="M649.004 359.725H676.29V382.936H649.004V359.725Z" fill="#F4CCCC"/>
<path fill-rule="evenodd" clip-rule="evenodd" d="M649.004 359.725H676.29V382.936H649.004V359.725Z" stroke="#161616" stroke-miterlimit="10" stroke-linejoin="round" stroke-dasharray="1 3"/>
<path fill-rule="evenodd" clip-rule="evenodd" d="M682.598 359.725H709.884V382.937H682.598V359.725Z" fill="#F4CCCC"/>
<path fill-rule="evenodd" clip-rule="evenodd" d="M682.598 359.725H709.884V382.937H682.598V359.725Z" stroke="#161616" stroke-miterlimit="10" stroke-linejoin="round" stroke-dasharray="1 3"/>
<path fill-rule="evenodd" clip-rule="evenodd" d="M716.191 359.725H743.477V382.937H716.191V359.725Z" fill="#F4CCCC"/>
<path fill-rule="evenodd" clip-rule="evenodd" d="M716.191 359.725H743.477V382.937H716.191V359.725Z" stroke="#161616" stroke-miterlimit="10" stroke-linejoin="round" stroke-dasharray="1 3"/>
<path fill-rule="evenodd" clip-rule="evenodd" d="M749.785 359.725H777.071V382.936H749.785V359.725Z" fill="#F4CCCC"/>
<path fill-rule="evenodd" clip-rule="evenodd" d="M749.785 359.725H777.071V382.936H749.785V359.725Z" stroke="#161616" stroke-miterlimit="10" stroke-linejoin="round" stroke-dasharray="1 3"/>
<path fill-rule="evenodd" clip-rule="evenodd" d="M783.379 359.725H810.665V382.937H783.379V359.725Z" fill="#F4CCCC"/>
<path fill-rule="evenodd" clip-rule="evenodd" d="M783.379 359.725H810.665V382.937H783.379V359.725Z" stroke="#161616" stroke-miterlimit="10" stroke-linejoin="round" stroke-dasharray="1 3"/>
<path fill-rule="evenodd" clip-rule="evenodd" d="M816.973 359.725H844.259V382.936H816.973V359.725Z" fill="#F4CCCC"/>
<path fill-rule="evenodd" clip-rule="evenodd" d="M816.973 359.725H844.259V382.936H816.973V359.725Z" stroke="#161616" stroke-miterlimit="10" stroke-linejoin="round" stroke-dasharray="1 3"/>
<path fill-rule="evenodd" clip-rule="evenodd" d="M850.564 359.725H877.851V382.937H850.564V359.725Z" fill="#F4CCCC"/>
<path fill-rule="evenodd" clip-rule="evenodd" d="M850.564 359.725H877.851V382.937H850.564V359.725Z" stroke="#161616" stroke-miterlimit="10" stroke-linejoin="round" stroke-dasharray="1 3"/>
<path fill-rule="evenodd" clip-rule="evenodd" d="M548.223 394.137H575.509V417.348H548.223V394.137Z" fill="#F4CCCC"/>
<path fill-rule="evenodd" clip-rule="evenodd" d="M548.223 394.137H575.509V417.348H548.223V394.137Z" stroke="#161616" stroke-miterlimit="10" stroke-linejoin="round" stroke-dasharray="1 3"/>
<path fill-rule="evenodd" clip-rule="evenodd" d="M581.816 394.137H609.102V417.348H581.816V394.137Z" fill="#F4CCCC"/>
<path fill-rule="evenodd" clip-rule="evenodd" d="M581.816 394.137H609.102V417.348H581.816V394.137Z" stroke="#161616" stroke-miterlimit="10" stroke-linejoin="round" stroke-dasharray="1 3"/>
<path fill-rule="evenodd" clip-rule="evenodd" d="M615.41 394.137H642.696V417.348H615.41V394.137Z" fill="#F4CCCC"/>
<path fill-rule="evenodd" clip-rule="evenodd" d="M615.41 394.137H642.696V417.348H615.41V394.137Z" stroke="#161616" stroke-miterlimit="10" stroke-linejoin="round" stroke-dasharray="1 3"/>
<path fill-rule="evenodd" clip-rule="evenodd" d="M649.004 394.137H676.29V417.348H649.004V394.137Z" fill="#F4CCCC"/>
<path fill-rule="evenodd" clip-rule="evenodd" d="M649.004 394.137H676.29V417.348H649.004V394.137Z" stroke="#161616" stroke-miterlimit="10" stroke-linejoin="round" stroke-dasharray="1 3"/>
<path fill-rule="evenodd" clip-rule="evenodd" d="M682.598 394.137H709.884V417.348H682.598V394.137Z" fill="#F4CCCC"/>
<path fill-rule="evenodd" clip-rule="evenodd" d="M682.598 394.137H709.884V417.348H682.598V394.137Z" stroke="#161616" stroke-miterlimit="10" stroke-linejoin="round" stroke-dasharray="1 3"/>
<path fill-rule="evenodd" clip-rule="evenodd" d="M716.191 394.137H743.477V417.348H716.191V394.137Z" fill="#F4CCCC"/>
<path fill-rule="evenodd" clip-rule="evenodd" d="M716.191 394.137H743.477V417.348H716.191V394.137Z" stroke="#161616" stroke-miterlimit="10" stroke-linejoin="round" stroke-dasharray="1 3"/>
<path fill-rule="evenodd" clip-rule="evenodd" d="M749.785 394.137H777.071V417.348H749.785V394.137Z" fill="#F4CCCC"/>
<path fill-rule="evenodd" clip-rule="evenodd" d="M749.785 394.137H777.071V417.348H749.785V394.137Z" stroke="#161616" stroke-miterlimit="10" stroke-linejoin="round" stroke-dasharray="1 3"/>
<path fill-rule="evenodd" clip-rule="evenodd" d="M783.379 394.137H810.665V417.348H783.379V394.137Z" fill="#F4CCCC"/>
<path fill-rule="evenodd" clip-rule="evenodd" d="M783.379 394.137H810.665V417.348H783.379V394.137Z" stroke="#161616" stroke-miterlimit="10" stroke-linejoin="round" stroke-dasharray="1 3"/>
<path fill-rule="evenodd" clip-rule="evenodd" d="M816.973 394.137H844.259V417.348H816.973V394.137Z" fill="#F4CCCC"/>
<path fill-rule="evenodd" clip-rule="evenodd" d="M816.973 394.137H844.259V417.348H816.973V394.137Z" stroke="#161616" stroke-miterlimit="10" stroke-linejoin="round" stroke-dasharray="1 3"/>
<path fill-rule="evenodd" clip-rule="evenodd" d="M850.564 394.137H877.851V417.348H850.564V394.137Z" fill="#F4CCCC"/>
<path fill-rule="evenodd" clip-rule="evenodd" d="M850.564 394.137H877.851V417.348H850.564V394.137Z" stroke="#161616" stroke-miterlimit="10" stroke-linejoin="round" stroke-dasharray="1 3"/>
<path fill-rule="evenodd" clip-rule="evenodd" d="M548.223 428.549H575.509V451.76H548.223V428.549Z" fill="#F4CCCC"/>
<path fill-rule="evenodd" clip-rule="evenodd" d="M548.223 428.549H575.509V451.76H548.223V428.549Z" stroke="#161616" stroke-miterlimit="10" stroke-linejoin="round" stroke-dasharray="1 3"/>
<path fill-rule="evenodd" clip-rule="evenodd" d="M581.816 428.549H609.102V451.76H581.816V428.549Z" fill="#F4CCCC"/>
<path fill-rule="evenodd" clip-rule="evenodd" d="M581.816 428.549H609.102V451.76H581.816V428.549Z" stroke="#161616" stroke-miterlimit="10" stroke-linejoin="round" stroke-dasharray="1 3"/>
<path fill-rule="evenodd" clip-rule="evenodd" d="M615.41 428.549H642.696V451.76H615.41V428.549Z" fill="#F4CCCC"/>
<path fill-rule="evenodd" clip-rule="evenodd" d="M615.41 428.549H642.696V451.76H615.41V428.549Z" stroke="#161616" stroke-miterlimit="10" stroke-linejoin="round" stroke-dasharray="1 3"/>
<path fill-rule="evenodd" clip-rule="evenodd" d="M649.004 428.549H676.29V451.76H649.004V428.549Z" fill="#F4CCCC"/>
<path fill-rule="evenodd" clip-rule="evenodd" d="M649.004 428.549H676.29V451.76H649.004V428.549Z" stroke="#161616" stroke-miterlimit="10" stroke-linejoin="round" stroke-dasharray="1 3"/>
<path fill-rule="evenodd" clip-rule="evenodd" d="M682.598 428.549H709.884V451.76H682.598V428.549Z" fill="#F4CCCC"/>
<path fill-rule="evenodd" clip-rule="evenodd" d="M682.598 428.549H709.884V451.76H682.598V428.549Z" stroke="#161616" stroke-miterlimit="10" stroke-linejoin="round" stroke-dasharray="1 3"/>
<path fill-rule="evenodd" clip-rule="evenodd" d="M716.191 428.549H743.477V451.76H716.191V428.549Z" fill="#F4CCCC"/>
<path fill-rule="evenodd" clip-rule="evenodd" d="M716.191 428.549H743.477V451.76H716.191V428.549Z" stroke="#161616" stroke-miterlimit="10" stroke-linejoin="round" stroke-dasharray="1 3"/>
<path fill-rule="evenodd" clip-rule="evenodd" d="M749.785 428.549H777.071V451.76H749.785V428.549Z" fill="#F4CCCC"/>
<path fill-rule="evenodd" clip-rule="evenodd" d="M749.785 428.549H777.071V451.76H749.785V428.549Z" stroke="#161616" stroke-miterlimit="10" stroke-linejoin="round" stroke-dasharray="1 3"/>
<path fill-rule="evenodd" clip-rule="evenodd" d="M783.379 428.549H810.665V451.76H783.379V428.549Z" fill="#F4CCCC"/>
<path fill-rule="evenodd" clip-rule="evenodd" d="M783.379 428.549H810.665V451.76H783.379V428.549Z" stroke="#161616" stroke-miterlimit="10" stroke-linejoin="round" stroke-dasharray="1 3"/>
<path fill-rule="evenodd" clip-rule="evenodd" d="M816.973 428.549H844.259V451.76H816.973V428.549Z" fill="#F4CCCC"/>
<path fill-rule="evenodd" clip-rule="evenodd" d="M816.973 428.549H844.259V451.76H816.973V428.549Z" stroke="#161616" stroke-miterlimit="10" stroke-linejoin="round" stroke-dasharray="1 3"/>
<path fill-rule="evenodd" clip-rule="evenodd" d="M850.564 428.549H877.851V451.76H850.564V428.549Z" fill="#F4CCCC"/>
<path fill-rule="evenodd" clip-rule="evenodd" d="M850.564 428.549H877.851V451.76H850.564V428.549Z" stroke="#161616" stroke-miterlimit="10" stroke-linejoin="round" stroke-dasharray="1 3"/>
<path fill-rule="evenodd" clip-rule="evenodd" d="M548.223 462.961H575.509V486.172H548.223V462.961Z" fill="#F4CCCC"/>
<path fill-rule="evenodd" clip-rule="evenodd" d="M548.223 462.961H575.509V486.172H548.223V462.961Z" stroke="#161616" stroke-miterlimit="10" stroke-linejoin="round" stroke-dasharray="1 3"/>
<path fill-rule="evenodd" clip-rule="evenodd" d="M581.816 462.961H609.102V486.172H581.816V462.961Z" fill="#F4CCCC"/>
<path fill-rule="evenodd" clip-rule="evenodd" d="M581.816 462.961H609.102V486.172H581.816V462.961Z" stroke="#161616" stroke-miterlimit="10" stroke-linejoin="round" stroke-dasharray="1 3"/>
<path fill-rule="evenodd" clip-rule="evenodd" d="M615.41 462.961H642.696V486.172H615.41V462.961Z" fill="#F4CCCC"/>
<path fill-rule="evenodd" clip-rule="evenodd" d="M615.41 462.961H642.696V486.172H615.41V462.961Z" stroke="#161616" stroke-miterlimit="10" stroke-linejoin="round" stroke-dasharray="1 3"/>
<path fill-rule="evenodd" clip-rule="evenodd" d="M649.004 462.961H676.29V486.172H649.004V462.961Z" fill="#F4CCCC"/>
<path fill-rule="evenodd" clip-rule="evenodd" d="M649.004 462.961H676.29V486.172H649.004V462.961Z" stroke="#161616" stroke-miterlimit="10" stroke-linejoin="round" stroke-dasharray="1 3"/>
<path fill-rule="evenodd" clip-rule="evenodd" d="M682.598 462.961H709.884V486.172H682.598V462.961Z" fill="#F4CCCC"/>
<path fill-rule="evenodd" clip-rule="evenodd" d="M682.598 462.961H709.884V486.172H682.598V462.961Z" stroke="#161616" stroke-miterlimit="10" stroke-linejoin="round" stroke-dasharray="1 3"/>
<path d="M57.7695 237.136C57.51 239.352 56.6914 241.059 55.3138 242.257C53.9462 243.455 52.1243 244.054 49.8483 244.054C47.3826 244.054 45.406 243.171 43.9186 241.404C42.4312 239.637 41.6875 237.271 41.6875 234.306V232.3C41.6875 230.353 42.0319 228.646 42.7207 227.179C43.4195 225.701 44.4028 224.568 45.6706 223.779C46.9484 222.991 48.4208 222.597 50.0879 222.597C52.314 222.597 54.0959 223.215 55.4336 224.453C56.7713 225.691 57.5499 227.403 57.7695 229.589H54.9993C54.7598 227.932 54.2407 226.729 53.4421 225.981C52.6434 225.232 51.5254 224.858 50.0879 224.858C48.3309 224.858 46.9533 225.511 45.9551 226.819C44.9568 228.117 44.4577 229.964 44.4577 232.36V234.381C44.4577 236.657 44.9319 238.464 45.8802 239.802C46.8286 241.139 48.1513 241.808 49.8483 241.808C51.3757 241.808 52.5486 241.464 53.3672 240.775C54.1858 240.076 54.7298 238.863 54.9993 237.136H57.7695ZM63.9991 243.77H61.3337V221.728H63.9991V243.77ZM77.822 242.227C76.7938 243.445 75.2764 244.054 73.2699 244.054C71.6228 244.054 70.3649 243.575 69.4964 242.617C68.628 241.658 68.1887 240.236 68.1787 238.349V228.242H70.8441V238.274C70.8441 240.63 71.7974 241.808 73.7041 241.808C75.7306 241.808 77.0783 241.049 77.7471 239.532V228.242H80.4125V243.77H77.8819L77.822 242.227ZM90.8731 244.054C88.7768 244.054 87.0648 243.365 85.7371 241.988C84.4194 240.6 83.7605 238.748 83.7605 236.432V235.953C83.7605 234.416 84.055 233.043 84.644 231.835C85.2329 230.618 86.0565 229.669 87.1147 228.99C88.1728 228.302 89.3158 227.957 90.5437 227.957C92.5602 227.957 94.1275 228.626 95.2455 229.964C96.3736 231.291 96.9376 233.193 96.9376 235.669V236.762H86.4109C86.4508 238.299 86.9 239.542 87.7585 240.49C88.6171 241.429 89.7052 241.898 91.0229 241.898C91.9612 241.898 92.7549 241.708 93.4037 241.329C94.0526 240.94 94.6216 240.43 95.1108 239.802L96.7279 241.059C95.4302 243.056 93.4786 244.054 90.8731 244.054ZM90.5437 230.143C89.4756 230.143 88.5771 230.533 87.8484 231.311C87.1197 232.09 86.6704 233.183 86.5007 234.591H94.2722V234.381C94.2023 233.033 93.838 231.99 93.1791 231.251C92.5303 230.513 91.6518 230.143 90.5437 230.143ZM109.043 239.652C109.043 238.933 108.769 238.379 108.22 237.99C107.68 237.59 106.737 237.246 105.389 236.957C104.052 236.667 102.989 236.323 102.2 235.923C101.411 235.524 100.827 235.05 100.448 234.501C100.069 233.942 99.879 233.278 99.879 232.509C99.879 231.241 100.418 230.168 101.496 229.29C102.574 228.401 103.952 227.957 105.629 227.957C107.386 227.957 108.809 228.411 109.897 229.32C110.995 230.228 111.544 231.391 111.544 232.809H108.878C108.878 232.08 108.569 231.456 107.95 230.937C107.341 230.408 106.567 230.143 105.629 230.143C104.661 230.143 103.902 230.353 103.353 230.772C102.814 231.192 102.544 231.741 102.544 232.419C102.544 233.058 102.794 233.542 103.293 233.872C103.802 234.201 104.721 234.516 106.048 234.815C107.376 235.105 108.449 235.454 109.268 235.863C110.086 236.273 110.695 236.767 111.095 237.346C111.494 237.925 111.693 238.634 111.693 239.472C111.693 240.86 111.139 241.973 110.031 242.811C108.923 243.64 107.481 244.054 105.704 244.054C104.466 244.054 103.368 243.835 102.41 243.395C101.451 242.956 100.703 242.342 100.164 241.554C99.6245 240.765 99.355 239.911 99.355 238.993H102.005C102.055 239.881 102.41 240.59 103.068 241.119C103.737 241.638 104.616 241.898 105.704 241.898C106.712 241.898 107.521 241.693 108.13 241.284C108.739 240.875 109.043 240.331 109.043 239.652Z" fill="#161616"/>
<path d="M116.252 240.58L116.581 237.421H119.831V238.155H117.255L117.076 239.892C117.385 239.712 117.734 239.622 118.124 239.622C118.703 239.622 119.162 239.812 119.501 240.191C119.851 240.57 120.025 241.089 120.025 241.748C120.025 242.397 119.846 242.911 119.486 243.291C119.137 243.67 118.643 243.86 118.004 243.86C117.445 243.86 116.986 243.705 116.626 243.395C116.277 243.076 116.077 242.642 116.027 242.093H116.791C116.841 242.462 116.971 242.742 117.18 242.931C117.39 243.111 117.664 243.201 118.004 243.201C118.383 243.201 118.678 243.076 118.887 242.826C119.107 242.567 119.217 242.208 119.217 241.748C119.217 241.329 119.097 240.99 118.857 240.73C118.628 240.471 118.323 240.341 117.944 240.341C117.595 240.341 117.315 240.421 117.105 240.58L116.896 240.745L116.252 240.58ZM123.563 243.77H122.739V238.394L121.122 238.993V238.259L123.428 237.391H123.563V243.77Z" fill="#161616"/>
<path d="M558.299 228.803H553.403V237.249H550.633V216.36H557.551C559.897 216.36 561.704 216.899 562.971 217.977C564.239 219.045 564.873 220.603 564.873 222.649C564.873 223.947 564.519 225.08 563.81 226.048C563.111 227.016 562.138 227.735 560.89 228.204L565.801 237.084V237.249H562.837L558.299 228.803ZM553.403 226.542H557.626C558.993 226.542 560.081 226.193 560.89 225.494C561.699 224.785 562.103 223.837 562.103 222.649C562.103 221.351 561.719 220.358 560.95 219.669C560.181 218.98 559.068 218.636 557.611 218.636H553.403V226.542ZM574.757 237.533C572.66 237.533 570.948 236.844 569.62 235.467C568.303 234.079 567.644 232.227 567.644 229.911V229.432C567.644 227.895 567.938 226.522 568.527 225.314C569.116 224.097 569.94 223.148 570.998 222.469C572.056 221.781 573.199 221.436 574.427 221.436C576.444 221.436 578.011 222.105 579.129 223.443C580.257 224.77 580.821 226.672 580.821 229.148V230.241H570.294C570.334 231.778 570.783 233.021 571.642 233.969C572.5 234.908 573.589 235.377 574.906 235.377C575.845 235.377 576.638 235.187 577.287 234.808C577.936 234.419 578.505 233.909 578.994 233.281L580.611 234.538C579.314 236.535 577.362 237.533 574.757 237.533ZM574.427 223.622C573.359 223.622 572.461 224.012 571.732 224.79C571.003 225.569 570.554 226.662 570.384 228.07H578.156V227.86C578.086 226.512 577.721 225.469 577.063 224.73C576.414 223.992 575.535 223.622 574.427 223.622ZM590.111 235.377C591.06 235.377 591.888 235.092 592.597 234.523C593.306 233.944 593.695 233.221 593.765 232.352H596.281C596.231 233.241 595.921 234.089 595.352 234.898C594.793 235.696 594.04 236.335 593.091 236.814C592.153 237.294 591.16 237.533 590.111 237.533C587.995 237.533 586.313 236.829 585.065 235.422C583.817 234.014 583.194 232.083 583.194 229.627V229.193C583.194 227.675 583.468 226.333 584.017 225.165C584.576 223.987 585.375 223.073 586.413 222.424C587.451 221.766 588.679 221.436 590.097 221.436C591.833 221.436 593.276 221.96 594.424 223.008C595.582 224.047 596.201 225.399 596.281 227.066H593.765C593.695 226.058 593.316 225.235 592.627 224.596C591.948 223.947 591.105 223.622 590.097 223.622C588.749 223.622 587.701 224.107 586.952 225.075C586.213 226.043 585.844 227.446 585.844 229.283V229.792C585.844 231.579 586.213 232.956 586.952 233.924C587.691 234.893 588.744 235.377 590.111 235.377ZM598.557 229.342C598.557 227.825 598.856 226.457 599.455 225.24C600.054 224.022 600.887 223.083 601.956 222.424C603.024 221.766 604.242 221.436 605.609 221.436C607.716 221.436 609.423 222.17 610.73 223.637C612.038 225.095 612.692 227.041 612.692 229.477V229.657C612.692 231.174 612.402 232.532 611.823 233.73C611.244 234.928 610.416 235.861 609.338 236.53C608.26 237.199 607.022 237.533 605.624 237.533C603.528 237.533 601.826 236.804 600.518 235.347C599.21 233.88 598.557 231.943 598.557 229.537V229.342ZM601.222 229.657C601.222 231.384 601.621 232.771 602.42 233.82C603.218 234.858 604.287 235.377 605.624 235.377C606.982 235.377 608.055 234.848 608.844 233.79C609.642 232.732 610.042 231.249 610.042 229.342C610.042 227.645 609.637 226.268 608.829 225.21C608.02 224.151 606.947 223.622 605.609 223.622C604.292 223.622 603.228 224.146 602.42 225.195C601.621 226.233 601.222 227.72 601.222 229.657ZM618.516 221.721L618.591 223.443C619.729 222.105 621.261 221.436 623.188 221.436C625.364 221.436 626.842 222.27 627.62 223.937C628.139 223.188 628.813 222.584 629.642 222.125C630.47 221.666 631.449 221.436 632.577 221.436C635.981 221.436 637.708 223.238 637.758 226.842V237.249H635.107V227.007C635.107 225.898 634.853 225.07 634.344 224.521C633.844 223.972 632.996 223.697 631.798 223.697C630.81 223.697 629.991 223.992 629.342 224.581C628.693 225.17 628.314 225.958 628.204 226.947V237.249H625.539V227.081C625.539 224.825 624.436 223.697 622.23 223.697C620.493 223.697 619.3 224.436 618.651 225.913V237.249H616.001V221.721H618.516ZM644.266 221.721L644.341 223.443C645.479 222.105 647.011 221.436 648.938 221.436C651.114 221.436 652.591 222.27 653.37 223.937C653.889 223.188 654.563 222.584 655.391 222.125C656.22 221.666 657.198 221.436 658.326 221.436C661.73 221.436 663.457 223.238 663.507 226.842V237.249H660.857V227.007C660.857 225.898 660.602 225.07 660.093 224.521C659.594 223.972 658.745 223.697 657.548 223.697C656.559 223.697 655.741 223.992 655.092 224.581C654.443 225.17 654.064 225.958 653.954 226.947V237.249H651.288V227.081C651.288 224.825 650.185 223.697 647.979 223.697C646.242 223.697 645.049 224.436 644.4 225.913V237.249H641.75V221.721H644.266ZM673.953 237.533C671.857 237.533 670.145 236.844 668.817 235.467C667.5 234.079 666.841 232.227 666.841 229.911V229.432C666.841 227.895 667.135 226.522 667.724 225.314C668.313 224.097 669.137 223.148 670.195 222.469C671.253 221.781 672.396 221.436 673.624 221.436C675.64 221.436 677.208 222.105 678.326 223.443C679.454 224.77 680.018 226.672 680.018 229.148V230.241H669.491C669.531 231.778 669.98 233.021 670.839 233.969C671.697 234.908 672.785 235.377 674.103 235.377C675.042 235.377 675.835 235.187 676.484 234.808C677.133 234.419 677.702 233.909 678.191 233.281L679.808 234.538C678.51 236.535 676.559 237.533 673.953 237.533ZM673.624 223.622C672.556 223.622 671.657 224.012 670.929 224.79C670.2 225.569 669.751 226.662 669.581 228.07H677.352V227.86C677.283 226.512 676.918 225.469 676.259 224.73C675.611 223.992 674.732 223.622 673.624 223.622ZM685.595 221.721L685.685 223.682C686.863 222.185 688.41 221.436 690.326 221.436C693.611 221.436 695.263 223.288 695.283 226.992V237.249H692.632V226.977C692.623 225.858 692.368 225.035 691.869 224.506C691.37 223.967 690.586 223.697 689.518 223.697C688.659 223.697 687.906 223.927 687.257 224.386C686.608 224.845 686.099 225.444 685.729 226.183V237.249H683.079V221.721H685.595ZM698.645 229.357C698.645 226.982 699.209 225.07 700.337 223.622C701.465 222.165 702.943 221.436 704.77 221.436C706.586 221.436 708.024 222.06 709.082 223.308V215.207H711.748V237.249H709.307L709.172 235.587C708.114 236.884 706.636 237.533 704.74 237.533C702.943 237.533 701.475 236.799 700.337 235.332C699.209 233.855 698.645 231.933 698.645 229.567V229.357ZM701.296 229.657C701.296 231.414 701.66 232.791 702.389 233.79C703.118 234.788 704.121 235.287 705.399 235.287C707.086 235.287 708.313 234.528 709.082 233.011V225.883C708.294 224.426 707.076 223.697 705.428 223.697C704.131 223.697 703.118 224.201 702.389 225.21C701.66 226.208 701.296 227.69 701.296 229.657ZM725.441 237.249C725.291 236.939 725.167 236.395 725.067 235.617C723.839 236.894 722.367 237.533 720.65 237.533C719.122 237.533 717.864 237.104 716.876 236.245C715.898 235.377 715.409 234.279 715.409 232.951C715.409 231.334 716.023 230.081 717.25 229.193C718.488 228.294 720.22 227.845 722.446 227.845H725.022V226.617C725.022 225.689 724.742 224.95 724.183 224.401C723.634 223.852 722.821 223.577 721.743 223.577C720.794 223.577 720.001 223.817 719.362 224.296C718.723 224.775 718.403 225.354 718.403 226.033H715.723C715.723 225.255 715.998 224.506 716.547 223.787C717.106 223.068 717.854 222.499 718.793 222.08C719.731 221.651 720.764 221.436 721.892 221.436C723.689 221.436 725.092 221.885 726.1 222.784C727.118 223.672 727.647 224.905 727.687 226.482V233.625C727.687 235.043 727.867 236.176 728.226 237.024V237.249H725.441ZM721.039 235.227C721.867 235.227 722.656 235.013 723.405 234.583C724.153 234.154 724.692 233.595 725.022 232.906V229.717H722.941C719.696 229.717 718.074 230.67 718.074 232.577C718.074 233.405 718.349 234.054 718.898 234.523C719.457 234.993 720.17 235.227 721.039 235.227ZM735.447 217.962V221.721H738.337V223.772H735.447V233.4C735.447 234.029 735.572 234.498 735.821 234.808C736.081 235.117 736.525 235.272 737.154 235.272C737.454 235.272 737.873 235.212 738.412 235.092V237.249C737.713 237.438 737.034 237.533 736.375 237.533C735.188 237.533 734.289 237.174 733.68 236.455C733.081 235.736 732.782 234.718 732.782 233.4V223.772H729.967V221.721H732.782V217.962H735.447ZM744.325 237.249H741.66V221.721H744.325V237.249ZM741.45 217.603C741.45 217.174 741.58 216.814 741.84 216.525C742.109 216.225 742.498 216.076 743.008 216.076C743.527 216.076 743.921 216.225 744.19 216.525C744.46 216.814 744.595 217.179 744.595 217.618C744.595 218.047 744.46 218.406 744.19 218.696C743.921 218.975 743.527 219.115 743.008 219.115C742.498 219.115 742.109 218.975 741.84 218.696C741.58 218.406 741.45 218.042 741.45 217.603ZM747.861 229.342C747.861 227.825 748.161 226.457 748.759 225.24C749.358 224.022 750.192 223.083 751.26 222.424C752.328 221.766 753.546 221.436 754.914 221.436C757.02 221.436 758.727 222.17 760.035 223.637C761.343 225.095 761.996 227.041 761.996 229.477V229.657C761.996 231.174 761.707 232.532 761.128 233.73C760.549 234.928 759.72 235.861 758.642 236.53C757.564 237.199 756.326 237.533 754.929 237.533C752.832 237.533 751.13 236.804 749.823 235.347C748.515 233.88 747.861 231.943 747.861 229.537V229.342ZM750.526 229.657C750.526 231.384 750.926 232.771 751.724 233.82C752.523 234.858 753.591 235.377 754.929 235.377C756.286 235.377 757.36 234.848 758.148 233.79C758.947 232.732 759.346 231.249 759.346 229.342C759.346 227.645 758.942 226.268 758.133 225.21C757.325 224.151 756.251 223.622 754.914 223.622C753.596 223.622 752.533 224.146 751.724 225.195C750.926 226.233 750.526 227.72 750.526 229.657ZM767.836 221.721L767.925 223.682C769.103 222.185 770.651 221.436 772.567 221.436C775.852 221.436 777.504 223.288 777.524 226.992V237.249H774.873V226.977C774.863 225.858 774.609 225.035 774.11 224.506C773.611 223.967 772.827 223.697 771.759 223.697C770.9 223.697 770.147 223.927 769.498 224.386C768.849 224.845 768.34 225.444 767.97 226.183V237.249H765.32V221.721H767.836ZM790.574 233.131C790.574 232.412 790.3 231.858 789.751 231.469C789.212 231.069 788.268 230.725 786.921 230.436C785.583 230.146 784.52 229.802 783.731 229.402C782.943 229.003 782.359 228.529 781.979 227.98C781.6 227.421 781.41 226.757 781.41 225.988C781.41 224.72 781.949 223.647 783.027 222.769C784.106 221.88 785.483 221.436 787.16 221.436C788.917 221.436 790.34 221.89 791.428 222.799C792.526 223.707 793.075 224.87 793.075 226.288H790.41C790.41 225.559 790.1 224.935 789.481 224.416C788.872 223.887 788.099 223.622 787.16 223.622C786.192 223.622 785.433 223.832 784.884 224.251C784.345 224.671 784.076 225.22 784.076 225.898C784.076 226.537 784.325 227.021 784.824 227.351C785.333 227.68 786.252 227.995 787.579 228.294C788.907 228.584 789.98 228.933 790.799 229.342C791.617 229.752 792.226 230.246 792.626 230.825C793.025 231.404 793.225 232.113 793.225 232.951C793.225 234.339 792.671 235.452 791.563 236.29C790.454 237.119 789.012 237.533 787.235 237.533C785.997 237.533 784.899 237.314 783.941 236.874C782.982 236.435 782.234 235.821 781.695 235.033C781.156 234.244 780.886 233.39 780.886 232.472H783.537C783.586 233.36 783.941 234.069 784.6 234.598C785.269 235.117 786.147 235.377 787.235 235.377C788.243 235.377 789.052 235.172 789.661 234.763C790.27 234.354 790.574 233.81 790.574 233.131Z" fill="#161616"/>
<path d="M800.583 230.885V231.574H800.433C799.804 231.584 799.3 231.773 798.921 232.143C798.551 232.502 798.342 233.006 798.292 233.655C798.621 233.276 799.075 233.086 799.654 233.086C800.203 233.086 800.643 233.281 800.972 233.67C801.311 234.059 801.481 234.563 801.481 235.182C801.481 235.831 801.301 236.355 800.942 236.755C800.583 237.144 800.104 237.339 799.505 237.339C798.896 237.339 798.401 237.104 798.022 236.635C797.643 236.166 797.453 235.567 797.453 234.838V234.523C797.453 233.355 797.703 232.462 798.202 231.843C798.701 231.224 799.445 230.905 800.433 230.885H800.583ZM799.52 233.76C799.24 233.76 798.985 233.845 798.756 234.014C798.526 234.174 798.367 234.379 798.277 234.628V234.928C798.277 235.447 798.391 235.866 798.621 236.186C798.861 236.505 799.155 236.665 799.505 236.665C799.874 236.665 800.158 236.535 800.358 236.275C800.568 236.006 800.673 235.651 800.673 235.212C800.673 234.773 800.568 234.424 800.358 234.164C800.148 233.895 799.869 233.76 799.52 233.76ZM802.802 234.059L803.132 230.9H806.381V231.633H803.806L803.626 233.37C803.935 233.191 804.285 233.101 804.674 233.101C805.253 233.101 805.712 233.291 806.052 233.67C806.401 234.049 806.576 234.568 806.576 235.227C806.576 235.876 806.396 236.39 806.037 236.77C805.687 237.149 805.193 237.339 804.554 237.339C803.995 237.339 803.536 237.184 803.177 236.874C802.827 236.555 802.628 236.121 802.578 235.572H803.341C803.391 235.941 803.521 236.22 803.731 236.41C803.94 236.59 804.215 236.68 804.554 236.68C804.934 236.68 805.228 236.555 805.438 236.305C805.657 236.046 805.767 235.686 805.767 235.227C805.767 234.808 805.647 234.469 805.408 234.209C805.178 233.949 804.874 233.82 804.494 233.82C804.145 233.82 803.865 233.9 803.656 234.059L803.446 234.224L802.802 234.059Z" fill="#161616"/>
<path fill-rule="evenodd" clip-rule="evenodd" d="M374.631 115.492C374.631 114.985 375.042 114.573 375.55 114.573H428.948C429.192 114.573 429.425 114.67 429.598 114.842C429.77 115.015 429.867 115.248 429.867 115.492V142.389C429.867 142.896 429.455 143.308 428.948 143.308H375.55C375.042 143.308 374.631 142.896 374.631 142.389V115.492Z" fill="#F5F5F5"/>
<path fill-rule="evenodd" clip-rule="evenodd" d="M374.631 115.492C374.631 114.985 375.042 114.573 375.55 114.573H428.948C429.192 114.573 429.425 114.67 429.598 114.842C429.77 115.015 429.867 115.248 429.867 115.492V142.389C429.867 142.896 429.455 143.308 428.948 143.308H375.55C375.042 143.308 374.631 142.896 374.631 142.389V115.492Z" stroke="#161616" stroke-miterlimit="10" stroke-linejoin="round"/>
<path fill-rule="evenodd" clip-rule="evenodd" d="M437.811 115.492C437.811 114.985 438.222 114.573 438.73 114.573H492.128C492.371 114.573 492.605 114.67 492.778 114.842C492.95 115.015 493.047 115.248 493.047 115.492V142.389C493.047 142.896 492.635 143.308 492.128 143.308H438.73C438.222 143.308 437.811 142.896 437.811 142.389V115.492Z" fill="#F5F5F5"/>
<path fill-rule="evenodd" clip-rule="evenodd" d="M437.811 115.492C437.811 114.985 438.222 114.573 438.73 114.573H492.128C492.371 114.573 492.605 114.67 492.778 114.842C492.95 115.015 493.047 115.248 493.047 115.492V142.389C493.047 142.896 492.635 143.308 492.128 143.308H438.73C438.222 143.308 437.811 142.896 437.811 142.389V115.492Z" stroke="#161616" stroke-miterlimit="10" stroke-linejoin="round"/>
<path fill-rule="evenodd" clip-rule="evenodd" d="M500.99 115.492C500.99 114.985 501.402 114.573 501.909 114.573H555.307C555.551 114.573 555.785 114.67 555.957 114.842C556.129 115.015 556.226 115.248 556.226 115.492V142.389C556.226 142.896 555.815 143.308 555.307 143.308H501.909C501.402 143.308 500.99 142.896 500.99 142.389V115.492Z" fill="#F5F5F5"/>
<path fill-rule="evenodd" clip-rule="evenodd" d="M500.99 115.492C500.99 114.985 501.402 114.573 501.909 114.573H555.307C555.551 114.573 555.785 114.67 555.957 114.842C556.129 115.015 556.226 115.248 556.226 115.492V142.389C556.226 142.896 555.815 143.308 555.307 143.308H501.909C501.402 143.308 500.99 142.896 500.99 142.389V115.492Z" stroke="#161616" stroke-miterlimit="10" stroke-linejoin="round"/>
<path fill-rule="evenodd" clip-rule="evenodd" d="M374.631 155.174C374.631 154.666 375.042 154.255 375.55 154.255H428.948C429.192 154.255 429.425 154.352 429.598 154.524C429.77 154.697 429.867 154.93 429.867 155.174V182.071C429.867 182.578 429.455 182.99 428.948 182.99H375.55C375.042 182.99 374.631 182.578 374.631 182.071V155.174Z" fill="#F5F5F5"/>
<path fill-rule="evenodd" clip-rule="evenodd" d="M374.631 155.174C374.631 154.666 375.042 154.255 375.55 154.255H428.948C429.192 154.255 429.425 154.352 429.598 154.524C429.77 154.697 429.867 154.93 429.867 155.174V182.071C429.867 182.578 429.455 182.99 428.948 182.99H375.55C375.042 182.99 374.631 182.578 374.631 182.071V155.174Z" stroke="#161616" stroke-miterlimit="10" stroke-linejoin="round"/>
<path fill-rule="evenodd" clip-rule="evenodd" d="M437.811 155.174C437.811 154.666 438.222 154.255 438.73 154.255H492.128C492.371 154.255 492.605 154.352 492.778 154.524C492.95 154.697 493.047 154.93 493.047 155.174V182.071C493.047 182.578 492.635 182.99 492.128 182.99H438.73C438.222 182.99 437.811 182.578 437.811 182.071V155.174Z" fill="#F5F5F5"/>
<path fill-rule="evenodd" clip-rule="evenodd" d="M437.811 155.174C437.811 154.666 438.222 154.255 438.73 154.255H492.128C492.371 154.255 492.605 154.352 492.778 154.524C492.95 154.697 493.047 154.93 493.047 155.174V182.071C493.047 182.578 492.635 182.99 492.128 182.99H438.73C438.222 182.99 437.811 182.578 437.811 182.071V155.174Z" stroke="#161616" stroke-miterlimit="10" stroke-linejoin="round"/>
<path d="M382.357 82.0653L379.812 84.7306V91.7834H377.057V70.8947H379.812V81.2267L389.096 70.8947H392.42L384.199 80.1187L393.064 91.7834H389.77L382.357 82.0653ZM401.122 92.0679C399.026 92.0679 397.314 91.3791 395.986 90.0015C394.668 88.6139 394.01 86.7621 394.01 84.4461V83.967C394.01 82.4296 394.304 81.057 394.893 79.8491C395.482 78.6312 396.306 77.6829 397.364 77.0041C398.422 76.3153 399.565 75.9709 400.793 75.9709C402.809 75.9709 404.377 76.6397 405.495 77.9774C406.623 79.3051 407.187 81.2068 407.187 83.6825V84.7756H396.66C396.7 86.3129 397.149 87.5557 398.008 88.5041C398.866 89.4424 399.954 89.9116 401.272 89.9116C402.21 89.9116 403.004 89.722 403.653 89.3426C404.302 88.9533 404.871 88.4442 405.36 87.8153L406.977 89.0731C405.679 91.0696 403.728 92.0679 401.122 92.0679ZM400.793 78.1571C399.725 78.1571 398.826 78.5464 398.098 79.325C397.369 80.1037 396.92 81.1968 396.75 82.6043H404.521V82.3947C404.451 81.047 404.087 80.0039 403.428 79.2651C402.779 78.5264 401.901 78.1571 400.793 78.1571ZM415.138 87.8901L418.761 76.2554H421.591L415.362 94.1792C414.394 96.7647 412.857 98.0575 410.75 98.0575L410.256 98.0125L409.253 97.8179V95.6766L409.972 95.7215C410.87 95.7215 411.569 95.5418 412.068 95.1825C412.577 94.8231 412.996 94.1592 413.326 93.1909L413.91 91.6187L408.369 76.2554H411.274L415.138 87.8901ZM443.169 82.5594H434.409V91.7834H431.654V70.8947H444.592V73.1707H434.409V80.3133H443.169V82.5594ZM450.364 91.7834H447.698V76.2554H450.364V91.7834ZM447.489 72.1375C447.489 71.7083 447.618 71.3489 447.878 71.0594C448.147 70.7599 448.537 70.6102 449.046 70.6102C449.565 70.6102 449.959 70.7599 450.229 71.0594C450.498 71.3489 450.633 71.7133 450.633 72.1525C450.633 72.5818 450.498 72.9411 450.229 73.2306C449.959 73.5101 449.565 73.6499 449.046 73.6499C448.537 73.6499 448.147 73.5101 447.878 73.2306C447.618 72.9411 447.489 72.5768 447.489 72.1375ZM457.119 76.2554L457.209 78.217C458.387 76.7196 459.934 75.9709 461.851 75.9709C465.135 75.9709 466.787 77.8226 466.807 81.5262V91.7834H464.157V81.5112C464.147 80.3932 463.892 79.5696 463.393 79.0405C462.894 78.5015 462.11 78.2319 461.042 78.2319C460.183 78.2319 459.43 78.4615 458.781 78.9207C458.132 79.3799 457.623 79.9789 457.254 80.7176V91.7834H454.603V76.2554H457.119ZM470.169 83.8921C470.169 81.5162 470.733 79.6045 471.861 78.1571C472.989 76.6996 474.467 75.9709 476.294 75.9709C478.111 75.9709 479.548 76.5948 480.606 77.8426V69.7417H483.272V91.7834H480.831L480.696 90.1213C479.638 91.419 478.16 92.0679 476.264 92.0679C474.467 92.0679 472.999 91.3341 471.861 89.8667C470.733 88.3893 470.169 86.4676 470.169 84.1017V83.8921ZM472.82 84.1916C472.82 85.9485 473.184 87.3261 473.913 88.3244C474.642 89.3226 475.645 89.8218 476.923 89.8218C478.61 89.8218 479.838 89.0631 480.606 87.5457V80.4181C479.818 78.9607 478.6 78.2319 476.953 78.2319C475.655 78.2319 474.642 78.7361 473.913 79.7443C473.184 80.7426 472.82 82.225 472.82 84.1916ZM490.272 91.7834H487.606V76.2554H490.272V91.7834ZM487.397 72.1375C487.397 71.7083 487.527 71.3489 487.786 71.0594C488.056 70.7599 488.445 70.6102 488.954 70.6102C489.473 70.6102 489.868 70.7599 490.137 71.0594C490.407 71.3489 490.541 71.7133 490.541 72.1525C490.541 72.5818 490.407 72.9411 490.137 73.2306C489.868 73.5101 489.473 73.6499 488.954 73.6499C488.445 73.6499 488.056 73.5101 487.786 73.2306C487.527 72.9411 487.397 72.5768 487.397 72.1375ZM497.027 76.2554L497.117 78.217C498.295 76.7196 499.842 75.9709 501.759 75.9709C505.043 75.9709 506.695 77.8226 506.715 81.5262V91.7834H504.065V81.5112C504.055 80.3932 503.8 79.5696 503.301 79.0405C502.802 78.5015 502.018 78.2319 500.95 78.2319C500.092 78.2319 499.338 78.4615 498.689 78.9207C498.04 79.3799 497.531 79.9789 497.162 80.7176V91.7834H494.511V76.2554H497.027ZM510.093 83.8921C510.093 81.4763 510.652 79.5546 511.77 78.1271C512.888 76.6896 514.37 75.9709 516.217 75.9709C518.114 75.9709 519.591 76.6397 520.649 77.9774L520.784 76.2554H523.21V91.409C523.21 93.4155 522.611 94.9978 521.413 96.1558C520.225 97.3138 518.628 97.8927 516.621 97.8927C515.503 97.8927 514.405 97.6532 513.327 97.174C512.259 96.6948 511.445 96.041 510.886 95.2124L512.264 93.6252C513.402 95.0227 514.789 95.7215 516.427 95.7215C517.724 95.7215 518.733 95.3572 519.451 94.6284C520.17 93.9097 520.529 92.8914 520.529 91.5737V90.2411C519.471 91.4589 518.024 92.0679 516.187 92.0679C514.37 92.0679 512.898 91.3391 511.77 89.8817C510.652 88.4142 510.093 86.4177 510.093 83.8921ZM512.758 84.1916C512.758 85.9485 513.117 87.3261 513.836 88.3244C514.555 89.3226 515.558 89.8218 516.846 89.8218C518.523 89.8218 519.751 89.0581 520.529 87.5308V80.4481C519.721 78.9706 518.503 78.2319 516.876 78.2319C515.588 78.2319 514.58 78.7361 513.851 79.7443C513.122 80.7426 512.758 82.225 512.758 84.1916ZM536.248 87.6655C536.248 86.9468 535.974 86.3927 535.425 86.0034C534.886 85.6041 533.942 85.2597 532.595 84.9702C531.257 84.6807 530.194 84.3363 529.405 83.937C528.617 83.5377 528.033 83.0635 527.653 82.5145C527.274 81.9555 527.084 81.2916 527.084 80.523C527.084 79.2552 527.623 78.182 528.702 77.3035C529.78 76.4151 531.157 75.9709 532.834 75.9709C534.591 75.9709 536.014 76.4251 537.102 77.3335C538.2 78.2419 538.749 79.4049 538.749 80.8224H536.084C536.084 80.0937 535.774 79.4698 535.155 78.9507C534.546 78.4216 533.773 78.1571 532.834 78.1571C531.866 78.1571 531.107 78.3667 530.558 78.786C530.019 79.2052 529.75 79.7543 529.75 80.4331C529.75 81.072 529.999 81.5562 530.498 81.8856C531.007 82.215 531.926 82.5295 533.254 82.8289C534.581 83.1184 535.654 83.4678 536.473 83.8771C537.292 84.2864 537.901 84.7805 538.3 85.3595C538.699 85.9385 538.899 86.6473 538.899 87.4858C538.899 88.8734 538.345 89.9865 537.237 90.825C536.129 91.6536 534.686 92.0679 532.909 92.0679C531.671 92.0679 530.573 91.8483 529.615 91.409C528.657 90.9698 527.908 90.3559 527.369 89.5672C526.83 88.7786 526.56 87.9251 526.56 87.0067H529.211C529.261 87.8951 529.615 88.6039 530.274 89.133C530.943 89.6521 531.821 89.9116 532.909 89.9116C533.917 89.9116 534.726 89.707 535.335 89.2977C535.944 88.8884 536.248 88.3443 536.248 87.6655Z" fill="#161616"/>
<path d="M543.457 88.5938L543.786 85.4343H547.036V86.168H544.46L544.281 87.905C544.59 87.7253 544.939 87.6355 545.329 87.6355C545.908 87.6355 546.367 87.8252 546.706 88.2045C547.056 88.5838 547.23 89.1029 547.23 89.7618C547.23 90.4107 547.051 90.9248 546.691 91.3041C546.342 91.6835 545.848 91.8731 545.209 91.8731C544.65 91.8731 544.191 91.7184 543.831 91.4089C543.482 91.0895 543.282 90.6552 543.232 90.1062H543.996C544.046 90.4756 544.176 90.7551 544.385 90.9447C544.595 91.1244 544.87 91.2143 545.209 91.2143C545.588 91.2143 545.883 91.0895 546.092 90.8399C546.312 90.5804 546.422 90.221 546.422 89.7618C546.422 89.3425 546.302 89.0031 546.062 88.7436C545.833 88.484 545.528 88.3542 545.149 88.3542C544.8 88.3542 544.52 88.4341 544.311 88.5938L544.101 88.7585L543.457 88.5938Z" fill="#161616"/>
<path fill-rule="evenodd" clip-rule="evenodd" d="M643.381 115.492C643.381 114.985 643.792 114.573 644.3 114.573H679.92C680.164 114.573 680.397 114.67 680.57 114.842C680.742 115.015 680.839 115.248 680.839 115.492V142.389C680.839 142.896 680.427 143.308 679.92 143.308H644.3C643.792 143.308 643.381 142.896 643.381 142.389V115.492Z" fill="#F5F5F5"/>
<path fill-rule="evenodd" clip-rule="evenodd" d="M643.381 115.492C643.381 114.985 643.792 114.573 644.3 114.573H679.92C680.164 114.573 680.397 114.67 680.57 114.842C680.742 115.015 680.839 115.248 680.839 115.492V142.389C680.839 142.896 680.427 143.308 679.92 143.308H644.3C643.792 143.308 643.381 142.896 643.381 142.389V115.492Z" stroke="#161616" stroke-miterlimit="10" stroke-linejoin="round" stroke-dasharray="1 3"/>
<path fill-rule="evenodd" clip-rule="evenodd" d="M686.24 115.492C686.24 114.985 686.652 114.573 687.159 114.573H722.779C723.023 114.573 723.257 114.67 723.429 114.842C723.601 115.015 723.698 115.248 723.698 115.492V142.389C723.698 142.896 723.287 143.308 722.779 143.308H687.159C686.652 143.308 686.24 142.896 686.24 142.389V115.492Z" fill="#F5F5F5"/>
<path fill-rule="evenodd" clip-rule="evenodd" d="M686.24 115.492C686.24 114.985 686.652 114.573 687.159 114.573H722.779C723.023 114.573 723.257 114.67 723.429 114.842C723.601 115.015 723.698 115.248 723.698 115.492V142.389C723.698 142.896 723.287 143.308 722.779 143.308H687.159C686.652 143.308 686.24 142.896 686.24 142.389V115.492Z" stroke="#161616" stroke-miterlimit="10" stroke-linejoin="round" stroke-dasharray="1 3"/>
<path fill-rule="evenodd" clip-rule="evenodd" d="M729.1 115.492C729.1 114.985 729.511 114.573 730.019 114.573H765.638C765.882 114.573 766.116 114.67 766.288 114.842C766.461 115.015 766.558 115.248 766.558 115.492V142.389C766.558 142.896 766.146 143.308 765.638 143.308H730.019C729.511 143.308 729.1 142.896 729.1 142.389V115.492Z" fill="#F5F5F5"/>
<path fill-rule="evenodd" clip-rule="evenodd" d="M729.1 115.492C729.1 114.985 729.511 114.573 730.019 114.573H765.638C765.882 114.573 766.116 114.67 766.288 114.842C766.461 115.015 766.558 115.248 766.558 115.492V142.389C766.558 142.896 766.146 143.308 765.638 143.308H730.019C729.511 143.308 729.1 142.896 729.1 142.389V115.492Z" stroke="#161616" stroke-miterlimit="10" stroke-linejoin="round" stroke-dasharray="1 3"/>
<path fill-rule="evenodd" clip-rule="evenodd" d="M643.381 155.174C643.381 154.666 643.792 154.255 644.3 154.255H679.92C680.164 154.255 680.397 154.351 680.57 154.524C680.742 154.696 680.839 154.93 680.839 155.174V182.07C680.839 182.578 680.427 182.99 679.92 182.99H644.3C643.792 182.99 643.381 182.578 643.381 182.07V155.174Z" fill="#F5F5F5"/>
<path fill-rule="evenodd" clip-rule="evenodd" d="M643.381 155.174C643.381 154.666 643.792 154.255 644.3 154.255H679.92C680.164 154.255 680.397 154.351 680.57 154.524C680.742 154.696 680.839 154.93 680.839 155.174V182.07C680.839 182.578 680.427 182.99 679.92 182.99H644.3C643.792 182.99 643.381 182.578 643.381 182.07V155.174Z" stroke="#161616" stroke-miterlimit="10" stroke-linejoin="round" stroke-dasharray="1 3"/>
<path fill-rule="evenodd" clip-rule="evenodd" d="M686.24 155.174C686.24 154.666 686.652 154.255 687.159 154.255H722.779C723.023 154.255 723.257 154.351 723.429 154.524C723.601 154.696 723.698 154.93 723.698 155.174V182.07C723.698 182.578 723.287 182.99 722.779 182.99H687.159C686.652 182.99 686.24 182.578 686.24 182.07V155.174Z" fill="#F5F5F5"/>
<path fill-rule="evenodd" clip-rule="evenodd" d="M686.24 155.174C686.24 154.666 686.652 154.255 687.159 154.255H722.779C723.023 154.255 723.257 154.351 723.429 154.524C723.601 154.696 723.698 154.93 723.698 155.174V182.07C723.698 182.578 723.287 182.99 722.779 182.99H687.159C686.652 182.99 686.24 182.578 686.24 182.07V155.174Z" stroke="#161616" stroke-miterlimit="10" stroke-linejoin="round" stroke-dasharray="1 3"/>
<path d="M651.962 82.4696C649.596 81.7907 647.874 80.9572 646.796 79.9689C645.728 78.9806 645.194 77.7578 645.194 76.3003C645.194 74.6631 645.848 73.3055 647.156 72.2274C648.473 71.1493 650.185 70.6102 652.292 70.6102C653.729 70.6102 655.007 70.8897 656.125 71.4487C657.253 71.9978 658.122 72.7614 658.73 73.7397C659.349 74.718 659.659 75.7812 659.659 76.9292H656.889C656.889 75.6714 656.484 74.6831 655.676 73.9644C654.877 73.2356 653.749 72.8713 652.292 72.8713C650.934 72.8713 649.876 73.1707 649.117 73.7697C648.359 74.3687 647.979 75.1972 647.979 76.2554C647.979 77.1139 648.339 77.8376 649.057 78.4266C649.776 79.0156 651.004 79.5546 652.741 80.0438C654.478 80.523 655.836 81.057 656.814 81.646C657.792 82.235 658.516 82.9238 658.985 83.7124C659.464 84.4911 659.704 85.4144 659.704 86.4826C659.704 88.1697 659.045 89.5223 657.727 90.5405C656.41 91.5588 654.648 92.0679 652.441 92.0679C651.004 92.0679 649.661 91.7934 648.413 91.2443C647.176 90.6953 646.217 89.9416 645.538 88.9832C644.87 88.0249 644.535 86.9418 644.535 85.7339H647.305C647.305 86.9917 647.77 87.99 648.698 88.7287C649.626 89.4574 650.874 89.8218 652.441 89.8218C653.889 89.8218 654.997 89.5273 655.766 88.9383C656.544 88.3394 656.934 87.5308 656.934 86.5125C656.934 85.4843 656.574 84.6907 655.855 84.1317C655.147 83.5726 653.849 83.0186 651.962 82.4696ZM672.401 90.2411C671.373 91.4589 669.856 92.0679 667.849 92.0679C666.202 92.0679 664.944 91.5887 664.076 90.6304C663.207 89.672 662.768 88.2495 662.758 86.3628V76.2554H665.424V86.2879C665.424 88.6438 666.377 89.8218 668.284 89.8218C670.31 89.8218 671.658 89.0631 672.327 87.5457V76.2554H674.992V91.7834H672.461L672.401 90.2411ZM692.161 84.1916C692.161 86.5674 691.612 88.4741 690.514 89.9116C689.426 91.3491 687.963 92.0679 686.126 92.0679C684.17 92.0679 682.657 91.3741 681.589 89.9865L681.455 91.7834H679.014V69.7417H681.664V77.9624C682.742 76.6347 684.22 75.9709 686.096 75.9709C687.983 75.9709 689.466 76.6846 690.544 78.1121C691.622 79.5397 692.161 81.4913 692.161 83.967V84.1916ZM689.496 83.8921C689.496 82.0852 689.146 80.6927 688.447 79.7144C687.759 78.7261 686.755 78.2319 685.438 78.2319C683.691 78.2319 682.433 79.0455 681.664 80.6727V87.381C682.483 89.0082 683.751 89.8218 685.468 89.8218C686.745 89.8218 687.734 89.3276 688.432 88.3394C689.141 87.3511 689.496 85.8687 689.496 83.8921ZM701.022 83.9969H694.014V81.8257H701.022V83.9969ZM715.536 82.5594H706.776V91.7834H704.021V70.8947H716.958V73.1707H706.776V80.3133H715.536V82.5594ZM722.73 91.7834H720.065V76.2554H722.73V91.7834ZM719.855 72.1375C719.855 71.7083 719.985 71.3489 720.244 71.0594C720.514 70.7599 720.903 70.6102 721.412 70.6102C721.932 70.6102 722.326 70.7599 722.595 71.0594C722.865 71.3489 723 71.7133 723 72.1525C723 72.5818 722.865 72.9411 722.595 73.2306C722.326 73.5101 721.932 73.6499 721.412 73.6499C720.903 73.6499 720.514 73.5101 720.244 73.2306C719.985 72.9411 719.855 72.5768 719.855 72.1375ZM729.485 76.2554L729.575 78.217C730.753 76.7196 732.3 75.9709 734.217 75.9709C737.501 75.9709 739.154 77.8226 739.173 81.5262V91.7834H736.523V81.5112C736.513 80.3932 736.259 79.5696 735.759 79.0405C735.26 78.5015 734.477 78.2319 733.408 78.2319C732.55 78.2319 731.796 78.4615 731.147 78.9207C730.499 79.3799 729.989 79.9789 729.62 80.7176V91.7834H726.97V76.2554H729.485ZM742.536 83.8921C742.536 81.5162 743.1 79.6045 744.228 78.1571C745.356 76.6996 746.833 75.9709 748.66 75.9709C750.477 75.9709 751.915 76.5948 752.973 77.8426V69.7417H755.638V91.7834H753.197L753.063 90.1213C752.004 91.419 750.527 92.0679 748.63 92.0679C746.833 92.0679 745.366 91.3342 744.228 89.8667C743.1 88.3893 742.536 86.4676 742.536 84.1017V83.8921ZM745.186 84.1916C745.186 85.9485 745.551 87.3261 746.279 88.3244C747.008 89.3226 748.011 89.8218 749.289 89.8218C750.976 89.8218 752.204 89.0631 752.973 87.5457V80.4181C752.184 78.9607 750.966 78.2319 749.319 78.2319C748.021 78.2319 747.008 78.7361 746.279 79.7443C745.551 80.7426 745.186 82.225 745.186 84.1916ZM762.638 91.7834H759.973V76.2554H762.638V91.7834ZM759.763 72.1375C759.763 71.7083 759.893 71.3489 760.153 71.0594C760.422 70.7599 760.812 70.6102 761.321 70.6102C761.84 70.6102 762.234 70.7599 762.504 71.0594C762.773 71.3489 762.908 71.7133 762.908 72.1525C762.908 72.5818 762.773 72.9411 762.504 73.2306C762.234 73.5101 761.84 73.6499 761.321 73.6499C760.812 73.6499 760.422 73.5101 760.153 73.2306C759.893 72.9411 759.763 72.5768 759.763 72.1375ZM769.394 76.2554L769.483 78.217C770.661 76.7196 772.209 75.9709 774.125 75.9709C777.41 75.9709 779.062 77.8226 779.082 81.5262V91.7834H776.431V81.5112C776.421 80.3932 776.167 79.5696 775.668 79.0405C775.169 78.5015 774.385 78.2319 773.317 78.2319C772.458 78.2319 771.705 78.4615 771.056 78.9207C770.407 79.3799 769.898 79.9789 769.528 80.7176V91.7834H766.878V76.2554H769.394ZM782.459 83.8921C782.459 81.4763 783.018 79.5546 784.136 78.1271C785.254 76.6896 786.737 75.9709 788.583 75.9709C790.48 75.9709 791.958 76.6397 793.016 77.9774L793.151 76.2554H795.576V91.409C795.576 93.4155 794.977 94.9978 793.779 96.1558C792.591 97.3138 790.994 97.8927 788.988 97.8927C787.87 97.8927 786.772 97.6532 785.693 97.174C784.625 96.6948 783.812 96.041 783.253 95.2124L784.63 93.6252C785.768 95.0227 787.156 95.7215 788.793 95.7215C790.091 95.7215 791.099 95.3572 791.818 94.6284C792.537 93.9097 792.896 92.8914 792.896 91.5737V90.2411C791.838 91.4589 790.39 92.0679 788.554 92.0679C786.737 92.0679 785.264 91.3391 784.136 89.8817C783.018 88.4142 782.459 86.4177 782.459 83.8921ZM785.124 84.1916C785.124 85.9485 785.484 87.3261 786.203 88.3244C786.921 89.3226 787.925 89.8218 789.212 89.8218C790.889 89.8218 792.117 89.0581 792.896 87.5308V80.4481C792.087 78.9707 790.869 78.2319 789.242 78.2319C787.955 78.2319 786.946 78.7361 786.218 79.7443C785.489 80.7426 785.124 82.225 785.124 84.1916ZM808.615 87.6655C808.615 86.9468 808.34 86.3927 807.791 86.0034C807.252 85.6041 806.309 85.2597 804.961 84.9702C803.624 84.6807 802.56 84.3363 801.772 83.937C800.983 83.5377 800.399 83.0635 800.02 82.5145C799.64 81.9555 799.451 81.2916 799.451 80.523C799.451 79.2552 799.99 78.182 801.068 77.3035C802.146 76.4151 803.524 75.9709 805.201 75.9709C806.958 75.9709 808.38 76.4251 809.468 77.3335C810.566 78.2419 811.116 79.4049 811.116 80.8224H808.45C808.45 80.0937 808.141 79.4698 807.522 78.9507C806.913 78.4216 806.139 78.1571 805.201 78.1571C804.232 78.1571 803.474 78.3667 802.925 78.786C802.386 79.2052 802.116 79.7543 802.116 80.4331C802.116 81.072 802.366 81.5562 802.865 81.8856C803.374 82.215 804.292 82.5295 805.62 82.8289C806.948 83.1184 808.021 83.4678 808.839 83.8771C809.658 84.2864 810.267 84.7805 810.666 85.3595C811.066 85.9385 811.265 86.6473 811.265 87.4858C811.265 88.8734 810.711 89.9865 809.603 90.825C808.495 91.6536 807.053 92.0679 805.276 92.0679C804.038 92.0679 802.94 91.8483 801.981 91.409C801.023 90.9698 800.274 90.3559 799.735 89.5672C799.196 88.7786 798.927 87.9251 798.927 87.0067H801.577C801.627 87.8951 801.981 88.6039 802.64 89.133C803.309 89.6521 804.188 89.9116 805.276 89.9116C806.284 89.9116 807.093 89.707 807.701 89.2977C808.31 88.8884 808.615 88.3443 808.615 87.6655Z" fill="#161616"/>
<path d="M818.624 85.4194V86.1082H818.474C817.845 86.1182 817.341 86.3079 816.962 86.6772C816.592 87.0366 816.383 87.5407 816.333 88.1896C816.662 87.8103 817.116 87.6206 817.695 87.6206C818.244 87.6206 818.684 87.8153 819.013 88.2046C819.352 88.5939 819.522 89.098 819.522 89.717C819.522 90.3658 819.342 90.8899 818.983 91.2892C818.624 91.6785 818.145 91.8732 817.546 91.8732C816.937 91.8732 816.442 91.6386 816.063 91.1694C815.684 90.7002 815.494 90.1013 815.494 89.3726V89.0581C815.494 87.8901 815.744 86.9967 816.243 86.3778C816.742 85.7588 817.486 85.4394 818.474 85.4194H818.624ZM817.561 88.2944C817.281 88.2944 817.026 88.3793 816.797 88.549C816.567 88.7087 816.408 88.9134 816.318 89.1629V89.4624C816.318 89.9815 816.432 90.4008 816.662 90.7202C816.902 91.0397 817.196 91.1994 817.546 91.1994C817.915 91.1994 818.199 91.0696 818.399 90.8101C818.609 90.5405 818.714 90.1861 818.714 89.7469C818.714 89.3077 818.609 88.9583 818.399 88.6987C818.189 88.4292 817.91 88.2944 817.561 88.2944Z" fill="#161616"/>
<path fill-rule="evenodd" clip-rule="evenodd" d="M729.1 155.174C729.1 154.666 729.511 154.255 730.019 154.255H765.638C765.882 154.255 766.116 154.351 766.288 154.524C766.461 154.696 766.558 154.93 766.558 155.174V182.07C766.558 182.578 766.146 182.99 765.638 182.99H730.019C729.511 182.99 729.1 182.578 729.1 182.07V155.174Z" fill="#F5F5F5"/>
<path fill-rule="evenodd" clip-rule="evenodd" d="M729.1 155.174C729.1 154.666 729.511 154.255 730.019 154.255H765.638C765.882 154.255 766.116 154.351 766.288 154.524C766.461 154.696 766.558 154.93 766.558 155.174V182.07C766.558 182.578 766.146 182.99 765.638 182.99H730.019C729.511 182.99 729.1 182.578 729.1 182.07V155.174Z" stroke="#161616" stroke-miterlimit="10" stroke-linejoin="round" stroke-dasharray="1 3"/>
<path d="M50.0592 83.3381H45.1628V91.7834H42.3926V70.8947H49.3105C51.6565 70.8947 53.4633 71.4338 54.7311 72.5119C55.9989 73.58 56.6328 75.1373 56.6328 77.1838C56.6328 78.4815 56.2784 79.6145 55.5697 80.5828C54.8709 81.5512 53.8976 82.2699 52.6497 82.7391L57.5612 91.6187V91.7834H54.5964L50.0592 83.3381ZM45.1628 81.077H49.3854C50.753 81.077 51.8411 80.7276 52.6497 80.0288C53.4583 79.32 53.8626 78.3717 53.8626 77.1838C53.8626 75.886 53.4783 74.8927 52.7096 74.2039C51.941 73.5151 50.8279 73.1707 49.3704 73.1707H45.1628V81.077ZM66.5163 92.0679C64.42 92.0679 62.708 91.3791 61.3803 90.0015C60.0626 88.6139 59.4037 86.7621 59.4037 84.4461V83.967C59.4037 82.4296 59.6982 81.057 60.2872 79.8491C60.8762 78.6312 61.6997 77.6829 62.7579 77.0041C63.816 76.3153 64.959 75.9709 66.1869 75.9709C68.2034 75.9709 69.7707 76.6397 70.8887 77.9774C72.0168 79.3051 72.5808 81.2068 72.5808 83.6825V84.7756H62.0541C62.094 86.3129 62.5433 87.5557 63.4018 88.5041C64.2603 89.4424 65.3484 89.9116 66.6661 89.9116C67.6044 89.9116 68.3981 89.722 69.0469 89.3426C69.6958 88.9533 70.2648 88.4442 70.754 87.8153L72.3712 89.0731C71.0734 91.0696 69.1218 92.0679 66.5163 92.0679ZM66.1869 78.1571C65.1188 78.1571 64.2203 78.5464 63.4916 79.325C62.7629 80.1037 62.3137 81.1968 62.1439 82.6043H69.9154V82.3947C69.8456 81.047 69.4812 80.0039 68.8223 79.2651C68.1735 78.5264 67.295 78.1571 66.1869 78.1571ZM84.6863 87.6655C84.6863 86.9468 84.4118 86.3927 83.8628 86.0034C83.3237 85.6041 82.3803 85.2597 81.0327 84.9702C79.695 84.6807 78.6318 84.3363 77.8432 83.937C77.0546 83.5377 76.4706 83.0635 76.0913 82.5145C75.7119 81.9555 75.5223 81.2916 75.5223 80.523C75.5223 79.2552 76.0613 78.182 77.1394 77.3035C78.2176 76.4151 79.5952 75.9709 81.2723 75.9709C83.0292 75.9709 84.4517 76.4251 85.5398 77.3335C86.6379 78.2419 87.187 79.4049 87.187 80.8224H84.5216C84.5216 80.0937 84.2121 79.4698 83.5932 78.9507C82.9843 78.4216 82.2106 78.1571 81.2723 78.1571C80.3039 78.1571 79.5453 78.3667 78.9962 78.786C78.4572 79.2052 78.1876 79.7543 78.1876 80.4331C78.1876 81.072 78.4372 81.5562 78.9363 81.8856C79.4454 82.215 80.3638 82.5295 81.6915 82.8289C83.0192 83.1184 84.0924 83.4678 84.9109 83.8771C85.7295 84.2864 86.3384 84.7805 86.7378 85.3595C87.1371 85.9385 87.3367 86.6473 87.3367 87.4858C87.3367 88.8734 86.7827 89.9865 85.6746 90.825C84.5665 91.6536 83.124 92.0679 81.3471 92.0679C80.1093 92.0679 79.0112 91.8483 78.0529 91.409C77.0945 90.9698 76.3458 90.3559 75.8068 89.5672C75.2677 88.7786 74.9982 87.9251 74.9982 87.0067H77.6486C77.6985 87.8951 78.0529 88.6039 78.7117 89.133C79.3805 89.6521 80.259 89.9116 81.3471 89.9116C82.3554 89.9116 83.164 89.707 83.7729 89.2977C84.3818 88.8884 84.6863 88.3443 84.6863 87.6655ZM97.2293 92.0679C95.133 92.0679 93.421 91.3791 92.0933 90.0015C90.7756 88.6139 90.1167 86.7621 90.1167 84.4461V83.967C90.1167 82.4296 90.4112 81.057 91.0002 79.8491C91.5892 78.6312 92.4127 77.6829 93.4709 77.0041C94.529 76.3153 95.6721 75.9709 96.8999 75.9709C98.9164 75.9709 100.484 76.6397 101.602 77.9774C102.73 79.3051 103.294 81.2068 103.294 83.6825V84.7756H92.7671C92.807 86.3129 93.2563 87.5557 94.1148 88.5041C94.9733 89.4424 96.0614 89.9116 97.3791 89.9116C98.3175 89.9116 99.1111 89.722 99.7599 89.3426C100.409 88.9533 100.978 88.4442 101.467 87.8153L103.084 89.0731C101.786 91.0696 99.8348 92.0679 97.2293 92.0679ZM96.8999 78.1571C95.8318 78.1571 94.9333 78.5464 94.2046 79.325C93.4759 80.1037 93.0267 81.1968 92.857 82.6043H100.628V82.3947C100.559 81.047 100.194 80.0039 99.5353 79.2651C98.8865 78.5264 98.008 78.1571 96.8999 78.1571ZM115.938 91.7834C115.789 91.4739 115.664 90.9299 115.564 90.1512C114.336 91.429 112.864 92.0679 111.147 92.0679C109.619 92.0679 108.362 91.6386 107.373 90.7801C106.395 89.9116 105.906 88.8135 105.906 87.4858C105.906 85.8687 106.52 84.6158 107.748 83.7274C108.985 82.8289 110.717 82.3797 112.944 82.3797H115.519V81.1519C115.519 80.2235 115.24 79.4848 114.681 78.9357C114.132 78.3867 113.318 78.1121 112.24 78.1121C111.291 78.1121 110.498 78.3517 109.859 78.8309C109.22 79.3101 108.901 79.8891 108.901 80.5679H106.22C106.22 79.7892 106.495 79.0405 107.044 78.3218C107.603 77.603 108.352 77.034 109.29 76.6147C110.228 76.1855 111.262 75.9709 112.39 75.9709C114.186 75.9709 115.589 76.4201 116.597 77.3185C117.615 78.207 118.145 79.4398 118.184 81.0171V88.1597C118.184 89.5772 118.364 90.7102 118.724 91.5588V91.7834H115.938ZM111.536 89.7619C112.365 89.7619 113.153 89.5473 113.902 89.118C114.651 88.6887 115.19 88.1297 115.519 87.4409V84.2515H113.438C110.193 84.2515 108.571 85.2048 108.571 87.1115C108.571 87.9401 108.846 88.5889 109.395 89.0581C109.954 89.5273 110.668 89.7619 111.536 89.7619ZM129.838 78.6362C129.438 78.5763 129.004 78.5464 128.535 78.5464C126.798 78.5464 125.615 79.2851 124.986 80.7625V91.7834H122.336V76.2554H124.926L124.956 78.0522C125.834 76.6647 127.072 75.9709 128.67 75.9709C129.179 75.9709 129.568 76.0407 129.838 76.1805V78.6362ZM138.233 89.9116C139.182 89.9116 140.01 89.6271 140.719 89.0581C141.428 88.4791 141.817 87.7554 141.887 86.8869H144.403C144.353 87.7753 144.043 88.6239 143.474 89.4325C142.915 90.2311 142.161 90.87 141.213 91.3491C140.275 91.8283 139.281 92.0679 138.233 92.0679C136.117 92.0679 134.435 91.3641 133.187 89.9565C131.939 88.549 131.315 86.6174 131.315 84.1616V83.7274C131.315 82.21 131.59 80.8674 132.139 79.6994C132.698 78.5214 133.497 77.608 134.535 76.9591C135.573 76.3003 136.801 75.9709 138.218 75.9709C139.955 75.9709 141.398 76.495 142.546 77.5431C143.704 78.5813 144.323 79.934 144.403 81.6011H141.887C141.817 80.5928 141.438 79.7693 140.749 79.1304C140.07 78.4815 139.227 78.1571 138.218 78.1571C136.871 78.1571 135.822 78.6412 135.074 79.6095C134.335 80.5779 133.966 81.9804 133.966 83.8172V84.3263C133.966 86.1132 134.335 87.4908 135.074 88.4591C135.813 89.4275 136.866 89.9116 138.233 89.9116ZM150.033 78.1421C151.21 76.6946 152.743 75.9709 154.63 75.9709C157.914 75.9709 159.566 77.8226 159.586 81.5262V91.7834H156.936V81.5112C156.926 80.3932 156.671 79.5696 156.172 79.0405C155.673 78.5015 154.889 78.2319 153.821 78.2319C152.962 78.2319 152.209 78.4615 151.56 78.9207C150.911 79.3799 150.402 79.9789 150.033 80.7176V91.7834H147.382V69.7417H150.033V78.1421ZM187.203 82.0203C187.203 84.0368 186.884 85.7738 186.245 87.2313C185.606 88.6887 184.707 89.8268 183.549 90.6453L187.278 93.5802L185.391 95.3172L180.989 91.8133C180.3 91.983 179.576 92.0679 178.818 92.0679C177.17 92.0679 175.708 91.6636 174.43 90.855C173.162 90.0464 172.174 88.8934 171.465 87.396C170.767 85.8986 170.407 84.1666 170.387 82.2V80.6877C170.387 78.6812 170.737 76.9092 171.435 75.3719C172.134 73.8346 173.123 72.6566 174.4 71.8381C175.678 71.0195 177.141 70.6102 178.788 70.6102C180.465 70.6102 181.942 71.0195 183.22 71.8381C184.498 72.6466 185.481 73.8146 186.17 75.342C186.859 76.8593 187.203 78.6412 187.203 80.6877V82.0203ZM184.448 80.6727C184.448 78.207 183.959 76.3103 182.98 74.9826C182.002 73.6449 180.605 72.9761 178.788 72.9761C177.051 72.9761 175.683 73.6399 174.685 74.9676C173.687 76.2853 173.172 78.1221 173.142 80.478V82.0203C173.142 84.4062 173.642 86.2879 174.64 87.6655C175.648 89.0431 177.041 89.7319 178.818 89.7319C180.595 89.7319 181.967 89.0831 182.935 87.7853C183.914 86.4876 184.418 84.6308 184.448 82.215V80.6727ZM200.618 90.2411C199.59 91.4589 198.072 92.0679 196.066 92.0679C194.419 92.0679 193.161 91.5887 192.292 90.6304C191.424 89.672 190.985 88.2495 190.975 86.3628V76.2554H193.64V86.2879C193.64 88.6438 194.593 89.8218 196.5 89.8218C198.526 89.8218 199.874 89.0631 200.543 87.5457V76.2554H203.208V91.7834H200.678L200.618 90.2411ZM213.669 92.0679C211.573 92.0679 209.861 91.3791 208.533 90.0015C207.215 88.6139 206.556 86.7621 206.556 84.4461V83.967C206.556 82.4296 206.851 81.057 207.44 79.8491C208.029 78.6312 208.852 77.6829 209.911 77.0041C210.969 76.3153 212.112 75.9709 213.34 75.9709C215.356 75.9709 216.923 76.6397 218.041 77.9774C219.169 79.3051 219.733 81.2068 219.733 83.6825V84.7756H209.207C209.247 86.3129 209.696 87.5557 210.554 88.5041C211.413 89.4424 212.501 89.9116 213.819 89.9116C214.757 89.9116 215.551 89.722 216.2 89.3426C216.848 88.9533 217.417 88.4442 217.907 87.8153L219.524 89.0731C218.226 91.0696 216.274 92.0679 213.669 92.0679ZM213.34 78.1571C212.271 78.1571 211.373 78.5464 210.644 79.325C209.916 80.1037 209.466 81.1968 209.297 82.6043H217.068V82.3947C216.998 81.047 216.634 80.0039 215.975 79.2651C215.326 78.5264 214.448 78.1571 213.34 78.1571ZM231.839 87.6655C231.839 86.9468 231.564 86.3927 231.015 86.0034C230.476 85.6041 229.533 85.2597 228.185 84.9702C226.848 84.6807 225.785 84.3363 224.996 83.937C224.207 83.5377 223.623 83.0635 223.244 82.5145C222.865 81.9555 222.675 81.2916 222.675 80.523C222.675 79.2552 223.214 78.182 224.292 77.3035C225.37 76.4151 226.748 75.9709 228.425 75.9709C230.182 75.9709 231.604 76.4251 232.692 77.3335C233.791 78.2419 234.34 79.4049 234.34 80.8224H231.674C231.674 80.0937 231.365 79.4698 230.746 78.9507C230.137 78.4216 229.363 78.1571 228.425 78.1571C227.457 78.1571 226.698 78.3667 226.149 78.786C225.61 79.2052 225.34 79.7543 225.34 80.4331C225.34 81.072 225.59 81.5562 226.089 81.8856C226.598 82.215 227.516 82.5295 228.844 82.8289C230.172 83.1184 231.245 83.4678 232.064 83.8771C232.882 84.2864 233.491 84.7805 233.89 85.3595C234.29 85.9385 234.489 86.6473 234.489 87.4858C234.489 88.8734 233.935 89.9865 232.827 90.825C231.719 91.6536 230.277 92.0679 228.5 92.0679C227.262 92.0679 226.164 91.8483 225.206 91.409C224.247 90.9698 223.498 90.3559 222.959 89.5672C222.42 88.7786 222.151 87.9251 222.151 87.0067H224.801C224.851 87.8951 225.206 88.6039 225.864 89.133C226.533 89.6521 227.412 89.9116 228.5 89.9116C229.508 89.9116 230.317 89.707 230.926 89.2977C231.535 88.8884 231.839 88.3443 231.839 87.6655ZM241.552 72.4969V76.2554H244.442V78.3068H241.552V87.9351C241.552 88.564 241.677 89.0332 241.926 89.3426C242.186 89.6521 242.63 89.8068 243.259 89.8068C243.558 89.8068 243.978 89.7469 244.517 89.6271V91.7834C243.818 91.973 243.139 92.0679 242.48 92.0679C241.292 92.0679 240.394 91.7085 239.785 90.9897C239.186 90.271 238.887 89.2528 238.887 87.9351V78.3068H236.071V76.2554H238.887V72.4969H241.552ZM250.43 91.7834H247.765V76.2554H250.43V91.7834ZM247.555 72.1375C247.555 71.7083 247.685 71.3489 247.944 71.0594C248.214 70.7599 248.603 70.6102 249.112 70.6102C249.631 70.6102 250.026 70.7599 250.295 71.0594C250.565 71.3489 250.7 71.7133 250.7 72.1525C250.7 72.5818 250.565 72.9411 250.295 73.2306C250.026 73.5101 249.631 73.6499 249.112 73.6499C248.603 73.6499 248.214 73.5101 247.944 73.2306C247.685 72.9411 247.555 72.5768 247.555 72.1375ZM253.966 83.8771C253.966 82.3598 254.265 80.9921 254.864 79.7743C255.463 78.5564 256.297 77.618 257.365 76.9591C258.433 76.3003 259.651 75.9709 261.019 75.9709C263.125 75.9709 264.832 76.7046 266.14 78.172C267.447 79.6295 268.101 81.5761 268.101 84.0119V84.1916C268.101 85.7089 267.812 87.0666 267.233 88.2645C266.654 89.4624 265.825 90.3958 264.747 91.0646C263.669 91.7335 262.431 92.0679 261.034 92.0679C258.937 92.0679 257.235 91.3391 255.927 89.8817C254.62 88.4142 253.966 86.4776 253.966 84.0718V83.8771ZM256.631 84.1916C256.631 85.9186 257.031 87.3062 257.829 88.3543C258.628 89.3925 259.696 89.9116 261.034 89.9116C262.391 89.9116 263.464 89.3825 264.253 88.3244C265.052 87.2662 265.451 85.7838 265.451 83.8771C265.451 82.1801 265.047 80.8025 264.238 79.7443C263.429 78.6861 262.356 78.1571 261.019 78.1571C259.701 78.1571 258.638 78.6812 257.829 79.7293C257.031 80.7675 256.631 82.2549 256.631 84.1916ZM273.94 76.2554L274.03 78.217C275.208 76.7196 276.756 75.9709 278.672 75.9709C281.956 75.9709 283.609 77.8226 283.629 81.5262V91.7834H280.978V81.5112C280.968 80.3932 280.714 79.5696 280.215 79.0405C279.715 78.5015 278.932 78.2319 277.864 78.2319C277.005 78.2319 276.251 78.4615 275.603 78.9207C274.954 79.3799 274.445 79.9789 274.075 80.7176V91.7834H271.425V76.2554H273.94ZM296.679 87.6655C296.679 86.9468 296.405 86.3927 295.856 86.0034C295.316 85.6041 294.373 85.2597 293.025 84.9702C291.688 84.6807 290.625 84.3363 289.836 83.937C289.047 83.5377 288.463 83.0635 288.084 82.5145C287.705 81.9555 287.515 81.2916 287.515 80.523C287.515 79.2552 288.054 78.182 289.132 77.3035C290.21 76.4151 291.588 75.9709 293.265 75.9709C295.022 75.9709 296.445 76.4251 297.533 77.3335C298.631 78.2419 299.18 79.4049 299.18 80.8224H296.514C296.514 80.0937 296.205 79.4698 295.586 78.9507C294.977 78.4216 294.203 78.1571 293.265 78.1571C292.297 78.1571 291.538 78.3667 290.989 78.786C290.45 79.2052 290.18 79.7543 290.18 80.4331C290.18 81.072 290.43 81.5562 290.929 81.8856C291.438 82.215 292.357 82.5295 293.684 82.8289C295.012 83.1184 296.085 83.4678 296.904 83.8771C297.722 84.2864 298.331 84.7805 298.731 85.3595C299.13 85.9385 299.329 86.6473 299.329 87.4858C299.329 88.8734 298.775 89.9865 297.667 90.825C296.559 91.6536 295.117 92.0679 293.34 92.0679C292.102 92.0679 291.004 91.8483 290.046 91.409C289.087 90.9698 288.339 90.3559 287.8 89.5672C287.26 88.7786 286.991 87.9251 286.991 87.0067H289.641C289.691 87.8951 290.046 88.6039 290.704 89.133C291.373 89.6521 292.252 89.9116 293.34 89.9116C294.348 89.9116 295.157 89.707 295.766 89.2977C296.375 88.8884 296.679 88.3443 296.679 87.6655Z" fill="#161616"/>
<path d="M304.695 88.2195H305.294C305.674 88.2095 305.973 88.1097 306.193 87.92C306.412 87.7203 306.522 87.4558 306.522 87.1264C306.522 86.3777 306.153 86.0033 305.414 86.0033C305.065 86.0033 304.785 86.1032 304.576 86.3028C304.366 86.5025 304.261 86.767 304.261 87.0964H303.452C303.452 86.5873 303.637 86.168 304.007 85.8386C304.376 85.5092 304.845 85.3445 305.414 85.3445C306.013 85.3445 306.482 85.5042 306.822 85.8236C307.161 86.1331 307.331 86.5723 307.331 87.1414C307.331 87.4209 307.241 87.6904 307.061 87.9499C306.882 88.1995 306.637 88.3892 306.328 88.519C306.677 88.6288 306.946 88.8134 307.136 89.073C307.326 89.3325 307.421 89.647 307.421 90.0164C307.421 90.5854 307.236 91.0396 306.867 91.379C306.497 91.7084 306.013 91.8731 305.414 91.8731C304.815 91.8731 304.326 91.7134 303.947 91.394C303.577 91.0645 303.393 90.6353 303.393 90.1062H304.216C304.216 90.4456 304.321 90.7151 304.531 90.9148C304.75 91.1144 305.045 91.2143 305.414 91.2143C305.803 91.2143 306.103 91.1144 306.313 90.9148C306.522 90.7052 306.627 90.4107 306.627 90.0313C306.627 89.662 306.512 89.3775 306.283 89.1778C306.053 88.9782 305.724 88.8783 305.294 88.8783H304.695V88.2195Z" fill="#161616"/>
<path fill-rule="evenodd" clip-rule="evenodd" d="M39.9805 119.807C39.9805 112.273 46.0887 106.164 53.6235 106.164C57.2419 106.164 60.712 107.602 63.2706 110.16C65.8292 112.719 67.2666 116.189 67.2666 119.807V121.256C67.2666 128.791 61.1584 134.899 53.6235 134.899C46.0887 134.899 39.9805 128.791 39.9805 121.256V119.807Z" fill="#A4C2F4"/>
<path fill-rule="evenodd" clip-rule="evenodd" d="M39.9805 119.807C39.9805 112.273 46.0887 106.164 53.6235 106.164C57.2419 106.164 60.712 107.602 63.2706 110.16C65.8292 112.719 67.2666 116.189 67.2666 119.807V121.256C67.2666 128.791 61.1584 134.899 53.6235 134.899C46.0887 134.899 39.9805 128.791 39.9805 121.256V119.807Z" stroke="#161616" stroke-miterlimit="10" stroke-linejoin="round" stroke-dasharray="1 3"/>
<path fill-rule="evenodd" clip-rule="evenodd" d="M107.17 119.807C107.17 112.273 113.278 106.164 120.813 106.164C124.431 106.164 127.901 107.602 130.46 110.16C133.019 112.719 134.456 116.189 134.456 119.807V121.256C134.456 128.791 128.348 134.899 120.813 134.899C113.278 134.899 107.17 128.791 107.17 121.256V119.807Z" fill="#FFE599"/>
<path fill-rule="evenodd" clip-rule="evenodd" d="M107.17 119.807C107.17 112.273 113.278 106.164 120.813 106.164C124.431 106.164 127.901 107.602 130.46 110.16C133.019 112.719 134.456 116.189 134.456 119.807V121.256C134.456 128.791 128.348 134.899 120.813 134.899C113.278 134.899 107.17 128.791 107.17 121.256V119.807Z" stroke="#161616" stroke-miterlimit="10" stroke-linejoin="round" stroke-dasharray="1 3"/>
<path fill-rule="evenodd" clip-rule="evenodd" d="M73.5762 119.807C73.5762 112.273 79.6844 106.164 87.2192 106.164C90.8376 106.164 94.3077 107.602 96.8663 110.16C99.4249 112.719 100.862 116.189 100.862 119.807V121.256C100.862 128.791 94.7541 134.899 87.2192 134.899C79.6844 134.899 73.5762 128.791 73.5762 121.256V119.807Z" fill="#F4CCCC"/>
<path fill-rule="evenodd" clip-rule="evenodd" d="M73.5762 119.807C73.5762 112.273 79.6844 106.164 87.2192 106.164C90.8376 106.164 94.3077 107.602 96.8663 110.16C99.4249 112.719 100.862 116.189 100.862 119.807V121.256C100.862 128.791 94.7541 134.899 87.2192 134.899C79.6844 134.899 73.5762 128.791 73.5762 121.256V119.807Z" stroke="#161616" stroke-miterlimit="10" stroke-linejoin="round" stroke-dasharray="1 3"/>
</g>
<defs>
<clipPath id="clip0_456_7244">
<rect width="920" height="517.5" fill="white" transform="translate(0 0.697266)"/>
</clipPath>
</defs>
</svg>
