<svg xmlns="http://www.w3.org/2000/svg" viewBox="0 0 631.98 612.35"><defs><style>.cls-1{fill:#0191bf;}.cls-2{fill:#60cfe4;}.cls-3{fill:#21c2dd;}</style></defs><g id="Layer_2" data-name="Layer 2"><g id="Layer_1-2" data-name="Layer 1"><path class="cls-1" d="M168.35,396.51C116.42,321.81,60.61,249.43,13.88,171.59-18.79,117.17,9.4,46.14,65.08,15.31,123.1-16.81,189.41,2.64,231.65,64c27.88,40.46,56,80.75,84,121.11,0,.75,0,1.49,0,2.24Z"/><path class="cls-2" d="M315.66,187.3c0-.75,0-1.49,0-2.24,31.4-43.19,62.66-86.48,94.23-129.54,44-59.94,114-72.36,173.4-31,53.15,37,64.81,112,24.82,170.07C561.51,262.29,513.46,329,466,396.2c-3-3.06-6.45-5.78-8.9-9.23Q386.29,287.2,315.66,187.3Z"/><path class="cls-3" d="M315.66,187.3Q386.36,287.15,457.13,387c2.45,3.45,5.91,6.17,8.9,9.23-48.91,71.12-97.82,142.23-148.67,216.15l-149-215.84Z"/></g></g></svg>