<svg width="342" height="163" viewBox="0 0 342 163" fill="none" xmlns="http://www.w3.org/2000/svg">
<path d="M140.92 145.87C140.5 145.31 139.95 144.87 139.29 144.56C138.63 144.25 137.85 144.09 136.95 144.09C136.24 144.09 135.55 144.24 134.89 144.52C134.23 144.8 133.63 145.23 133.11 145.8C132.59 146.36 132.17 147.05 131.87 147.86C131.57 148.66 131.41 149.58 131.41 150.61V151.1C131.41 151.99 131.55 152.81 131.82 153.56C132.09 154.31 132.48 154.96 132.99 155.51C133.51 156.06 134.12 156.48 134.83 156.79C135.55 157.09 136.35 157.24 137.23 157.24C138.07 157.24 138.79 157.12 139.4 156.89C140.02 156.66 140.54 156.35 140.96 155.98C141.38 155.61 141.73 155.21 142 154.8L140.69 153.76C140.29 154.28 139.83 154.7 139.29 155.01C138.76 155.32 138.11 155.48 137.34 155.48C136.75 155.48 136.22 155.37 135.75 155.14C135.29 154.91 134.9 154.6 134.57 154.2C134.25 153.8 134 153.34 133.83 152.82C133.68 152.34 133.61 151.82 133.6 151.29H142.17V150.32C142.17 149.43 142.07 148.61 141.86 147.86C141.66 147.1 141.35 146.45 140.92 145.89V145.87ZM139.99 149.5H133.65C133.69 149.18 133.75 148.87 133.83 148.59C133.99 148 134.23 147.51 134.52 147.1C134.82 146.69 135.17 146.39 135.59 146.19C136 145.98 136.46 145.87 136.95 145.87C137.69 145.87 138.28 146.04 138.71 146.39C139.14 146.74 139.45 147.17 139.65 147.7C139.85 148.23 139.97 148.78 140 149.34V149.5H139.99ZM152.68 145.62C152.28 145.14 151.81 144.76 151.25 144.51C150.66 144.23 149.96 144.09 149.16 144.09C148.36 144.09 147.71 144.25 147.1 144.56C146.49 144.86 145.96 145.3 145.52 145.87C145.08 146.44 144.74 147.12 144.5 147.92C144.27 148.71 144.15 149.59 144.15 150.56V150.81C144.15 151.73 144.27 152.59 144.5 153.38C144.74 154.16 145.08 154.84 145.52 155.42C145.97 156 146.49 156.45 147.1 156.77C147.72 157.09 148.4 157.25 149.14 157.25C149.94 157.25 150.65 157.11 151.25 156.84C151.85 156.56 152.35 156.16 152.76 155.64L152.86 157.01H154.85V139.01H152.67V145.63L152.68 145.62ZM151.45 154.94C150.99 155.24 150.4 155.4 149.68 155.4C149.09 155.4 148.59 155.28 148.17 155.05C147.75 154.81 147.4 154.48 147.13 154.05C146.86 153.63 146.65 153.14 146.52 152.59C146.4 152.04 146.33 151.44 146.33 150.81V150.56C146.33 149.93 146.39 149.33 146.52 148.78C146.65 148.22 146.85 147.73 147.13 147.3C147.4 146.87 147.75 146.53 148.17 146.29C148.6 146.04 149.11 145.91 149.71 145.91C150.26 145.91 150.73 146 151.13 146.19C151.54 146.38 151.88 146.63 152.15 146.95C152.37 147.19 152.54 147.46 152.69 147.76V153.5C152.65 153.57 152.62 153.65 152.58 153.72C152.3 154.22 151.92 154.62 151.46 154.93L151.45 154.94ZM162.65 145.45C163.03 146.83 163.22 148.36 163.22 150.07V150.19C163.22 151.9 163.03 153.45 162.65 154.83C162.27 156.21 161.78 157.42 161.18 158.45C160.59 159.49 159.96 160.35 159.3 161.03C158.64 161.72 158.04 162.21 157.48 162.52L157.02 161.21C157.48 160.86 157.95 160.37 158.41 159.73C158.88 159.11 159.31 158.33 159.71 157.41C160.11 156.5 160.43 155.44 160.67 154.25C160.91 153.05 161.03 151.7 161.03 150.22V150.06C161.03 148.58 160.9 147.24 160.64 146.04C160.38 144.84 160.05 143.78 159.63 142.86C159.22 141.95 158.79 141.18 158.32 140.55C157.86 139.92 157.42 139.43 157.01 139.09L157.47 137.77C158.02 138.07 158.63 138.57 159.29 139.26C159.95 139.94 160.57 140.8 161.17 141.84C161.76 142.88 162.25 144.09 162.64 145.47L162.65 145.45ZM127.92 145.87C127.5 145.3 126.98 144.86 126.36 144.56C125.74 144.25 125.04 144.09 124.24 144.09C123.44 144.09 122.74 144.23 122.13 144.51C121.52 144.78 121 145.19 120.57 145.72L120.46 144.33H118.47V161.88H120.65V155.76C121.07 156.23 121.56 156.59 122.14 156.84C122.76 157.11 123.47 157.24 124.27 157.24C125.07 157.24 125.76 157.08 126.37 156.76C126.98 156.44 127.49 155.99 127.91 155.41C128.33 154.83 128.65 154.15 128.87 153.37C129.09 152.58 129.2 151.73 129.2 150.8V150.55C129.2 149.58 129.09 148.7 128.87 147.91C128.66 147.11 128.34 146.43 127.92 145.86V145.87ZM127.02 150.8C127.02 151.43 126.95 152.03 126.82 152.59C126.69 153.14 126.48 153.64 126.2 154.07C125.93 154.5 125.58 154.84 125.15 155.09C124.73 155.33 124.22 155.45 123.64 155.45C122.93 155.45 122.34 155.31 121.87 155.02C121.4 154.72 121.03 154.34 120.75 153.86C120.72 153.81 120.7 153.75 120.67 153.7V147.69C120.82 147.43 120.98 147.18 121.17 146.96C121.45 146.64 121.79 146.39 122.19 146.2C122.6 146.01 123.07 145.92 123.62 145.92C124.21 145.92 124.73 146.04 125.16 146.3C125.59 146.54 125.94 146.88 126.21 147.31C126.49 147.73 126.7 148.22 126.83 148.79C126.96 149.34 127.03 149.94 127.03 150.57V150.82L127.02 150.8ZM203.66 59.24L165.38 76.51V72.68L199.09 57.69L165.38 42.73V38.9L203.66 56.13V59.23V59.24ZM89.32 150.88C89.55 151.4 89.66 152 89.66 152.66C89.66 153.32 89.52 153.98 89.24 154.55C88.96 155.11 88.56 155.59 88.03 155.99C87.51 156.39 86.88 156.7 86.14 156.92C85.41 157.13 84.6 157.24 83.7 157.24C82.91 157.24 82.13 157.13 81.37 156.91C80.61 156.69 79.92 156.36 79.3 155.93C78.68 155.49 78.19 154.95 77.81 154.31C77.44 153.66 77.26 152.91 77.26 152.06H79.51C79.51 152.65 79.62 153.15 79.85 153.57C80.08 153.98 80.39 154.33 80.78 154.6C81.18 154.87 81.63 155.08 82.13 155.21C82.64 155.33 83.17 155.4 83.71 155.4C84.5 155.4 85.17 155.29 85.71 155.07C86.26 154.85 86.67 154.54 86.95 154.13C87.24 153.72 87.38 153.24 87.38 152.69C87.38 152.29 87.32 151.94 87.19 151.64C87.07 151.33 86.86 151.05 86.56 150.8C86.26 150.55 85.85 150.31 85.32 150.08C84.8 149.85 84.13 149.62 83.33 149.39C82.49 149.14 81.72 148.86 81.04 148.56C80.36 148.25 79.78 147.89 79.29 147.49C78.81 147.09 78.43 146.63 78.18 146.12C77.92 145.61 77.79 145.02 77.79 144.35C77.79 143.68 77.93 143.07 78.2 142.51C78.47 141.95 78.86 141.46 79.37 141.04C79.89 140.62 80.5 140.29 81.21 140.06C81.92 139.83 82.71 139.71 83.59 139.71C84.87 139.71 85.96 139.96 86.85 140.45C87.75 140.93 88.43 141.57 88.9 142.36C89.37 143.14 89.6 143.98 89.6 144.87H87.35C87.35 144.23 87.21 143.66 86.94 143.17C86.67 142.67 86.25 142.28 85.7 142C85.15 141.71 84.44 141.57 83.59 141.57C82.79 141.57 82.12 141.69 81.6 141.93C81.08 142.17 80.69 142.5 80.43 142.91C80.18 143.32 80.05 143.8 80.05 144.33C80.05 144.69 80.12 145.02 80.27 145.31C80.43 145.6 80.66 145.87 80.98 146.12C81.31 146.37 81.72 146.6 82.22 146.81C82.73 147.02 83.33 147.22 84.04 147.42C85.01 147.69 85.84 148 86.55 148.33C87.26 148.66 87.83 149.05 88.28 149.47C88.74 149.88 89.08 150.36 89.3 150.89L89.32 150.88ZM71.82 150.04V150.2C71.82 151.68 71.94 153.03 72.18 154.22C72.42 155.41 72.74 156.45 73.13 157.36C73.53 158.27 73.96 159.04 74.43 159.67C74.91 160.31 75.38 160.82 75.84 161.19L75.38 162.5C74.83 162.2 74.22 161.7 73.56 161.01C72.9 160.33 72.28 159.47 71.68 158.43C71.09 157.4 70.6 156.19 70.22 154.81C69.84 153.43 69.65 151.88 69.65 150.17V150.05C69.65 148.35 69.84 146.81 70.22 145.43C70.6 144.05 71.09 142.84 71.68 141.8C72.27 140.76 72.9 139.9 73.56 139.22C74.22 138.53 74.82 138.04 75.38 137.73L75.84 139.16C75.38 139.51 74.91 140 74.43 140.61C73.96 141.23 73.53 141.99 73.13 142.88C72.74 143.78 72.42 144.82 72.18 146.01C71.94 147.2 71.82 148.53 71.82 150.02V150.04ZM115.07 154.24V148.33C115.07 147.38 114.87 146.6 114.46 145.98C114.06 145.35 113.51 144.87 112.8 144.56C112.1 144.25 111.28 144.09 110.36 144.09C109.59 144.09 108.9 144.2 108.27 144.42C107.65 144.63 107.12 144.92 106.68 145.29C106.24 145.65 105.91 146.05 105.67 146.5C105.44 146.95 105.32 147.4 105.32 147.85H107.49C107.49 147.5 107.6 147.17 107.83 146.87C108.06 146.57 108.38 146.32 108.79 146.13C109.2 145.94 109.68 145.85 110.23 145.85C110.82 145.85 111.31 145.95 111.71 146.15C112.11 146.35 112.41 146.64 112.6 147.02C112.8 147.39 112.91 147.82 112.91 148.32V149.33H110.77C109.9 149.33 109.12 149.42 108.41 149.6C107.71 149.78 107.1 150.05 106.6 150.4C106.1 150.74 105.72 151.18 105.45 151.7C105.18 152.22 105.05 152.81 105.05 153.49C105.05 154.17 105.22 154.83 105.58 155.4C105.94 155.96 106.44 156.41 107.08 156.75C107.73 157.09 108.48 157.25 109.34 157.25C110.03 157.25 110.64 157.13 111.19 156.9C111.75 156.66 112.22 156.36 112.62 156C112.75 155.88 112.85 155.76 112.96 155.65C112.97 155.78 112.96 155.89 112.99 156.03C113.05 156.44 113.14 156.78 113.25 157.03H115.51V156.84C115.36 156.5 115.25 156.09 115.17 155.61C115.1 155.13 115.06 154.68 115.06 154.26L115.07 154.24ZM111.41 154.92C110.9 155.2 110.32 155.34 109.65 155.34C109.12 155.34 108.67 155.25 108.3 155.06C107.94 154.86 107.67 154.6 107.49 154.28C107.31 153.95 107.22 153.59 107.22 153.19C107.22 152.79 107.31 152.46 107.48 152.17C107.65 151.87 107.9 151.63 108.23 151.43C108.56 151.23 108.96 151.09 109.45 151C109.93 150.9 110.48 150.85 111.1 150.85H112.89V153.42C112.81 153.58 112.73 153.74 112.61 153.9C112.31 154.31 111.91 154.65 111.4 154.93L111.41 154.92ZM101.89 146.58C102.08 147.16 102.17 147.87 102.17 148.7V157.01H99.99V148.68C99.99 148.02 99.89 147.48 99.7 147.09C99.5 146.68 99.22 146.39 98.84 146.21C98.46 146.02 98 145.93 97.46 145.93C96.92 145.93 96.43 146.04 95.98 146.27C95.54 146.5 95.16 146.81 94.84 147.21C94.65 147.45 94.5 147.71 94.36 147.99V157.02H92.19V139.02H94.36V145.86C94.36 145.86 94.37 145.84 94.38 145.83C94.83 145.28 95.37 144.86 96 144.56C96.63 144.25 97.33 144.1 98.1 144.1C98.72 144.1 99.29 144.19 99.79 144.36C100.29 144.52 100.72 144.79 101.07 145.16C101.43 145.53 101.7 146 101.89 146.59V146.58ZM116.66 94L116.76 109.26C115.27 109.74 113.3 110.21 110.86 110.68C108.49 111.15 105.6 111.39 102.21 111.39C97.6 111.39 93.36 110.48 89.49 108.64C85.62 106.74 82.54 103.66 80.23 99.38C77.92 95.04 76.77 89.21 76.77 81.88V15.56H36.11V110.07H17.19V15.56H0V0H111.49V15.56H95.72V81.99C95.72 85.72 96.3 88.53 97.45 90.43C98.6 92.33 100.1 93.62 101.93 94.3C103.76 94.91 105.73 95.22 107.83 95.22C109.39 95.22 111.02 95.08 112.71 94.81C114.47 94.47 115.8 94.2 116.68 94H116.66ZM291.36 151.74C291.69 152.22 291.85 152.8 291.85 153.48C291.85 154.03 291.73 154.54 291.5 155C291.27 155.46 290.94 155.86 290.5 156.2C290.07 156.53 289.55 156.79 288.95 156.97C288.36 157.15 287.69 157.24 286.95 157.24C285.83 157.24 284.89 157.04 284.11 156.64C283.34 156.24 282.75 155.73 282.35 155.09C281.95 154.45 281.75 153.79 281.75 153.09H283.93C283.96 153.68 284.13 154.16 284.45 154.51C284.76 154.85 285.15 155.1 285.6 155.25C286.05 155.39 286.5 155.46 286.95 155.46C287.54 155.46 288.04 155.38 288.44 155.23C288.85 155.07 289.15 154.86 289.37 154.58C289.58 154.31 289.69 153.99 289.69 153.64C289.69 153.33 289.62 153.04 289.48 152.77C289.35 152.5 289.07 152.25 288.65 152.03C288.24 151.8 287.61 151.61 286.77 151.44C286.07 151.29 285.43 151.12 284.86 150.91C284.3 150.71 283.82 150.46 283.42 150.17C283.03 149.88 282.73 149.54 282.52 149.15C282.31 148.76 282.2 148.3 282.2 147.78C282.2 147.26 282.31 146.81 282.53 146.36C282.76 145.91 283.07 145.52 283.48 145.18C283.89 144.84 284.39 144.57 284.97 144.37C285.55 144.17 286.19 144.08 286.9 144.08C287.92 144.08 288.78 144.26 289.5 144.62C290.22 144.98 290.77 145.46 291.15 146.06C291.53 146.65 291.72 147.31 291.72 148.04H289.55C289.55 147.69 289.45 147.35 289.23 147.02C289.03 146.68 288.73 146.41 288.33 146.19C287.94 145.97 287.46 145.86 286.89 145.86C286.29 145.86 285.8 145.95 285.42 146.14C285.05 146.32 284.78 146.55 284.61 146.83C284.45 147.11 284.36 147.41 284.36 147.72C284.36 147.95 284.4 148.17 284.48 148.35C284.57 148.53 284.71 148.7 284.93 148.85C285.14 149 285.44 149.14 285.82 149.27C286.2 149.4 286.69 149.54 287.29 149.67C288.33 149.9 289.18 150.19 289.86 150.51C290.53 150.84 291.03 151.24 291.36 151.72V151.74ZM278.7 140.07C278.93 140.31 279.04 140.61 279.04 140.96C279.04 141.31 278.93 141.58 278.7 141.83C278.48 142.07 278.17 142.18 277.75 142.18C277.33 142.18 277.01 142.06 276.79 141.83C276.58 141.59 276.47 141.3 276.47 140.96C276.47 140.62 276.58 140.31 276.79 140.07C277.01 139.83 277.33 139.71 277.75 139.71C278.17 139.71 278.48 139.83 278.7 140.07ZM276.64 144.32H278.82V157H276.64V144.32ZM342 17.75H308.06V110H285.41V17.75H252V0H342V17.75ZM183.93 147.89H185.71C185.71 148.48 185.62 149.05 185.43 149.58C185.25 150.11 184.99 150.58 184.64 150.99C184.3 151.39 183.9 151.71 183.43 151.94C182.97 152.17 182.46 152.28 181.91 152.28C181.23 152.28 180.63 152.14 180.1 151.87C179.59 151.6 179.02 151.2 178.41 150.66C178.01 150.29 177.64 150.01 177.31 149.81C176.98 149.61 176.61 149.51 176.22 149.51C175.83 149.51 175.48 149.61 175.2 149.8C174.92 149.99 174.7 150.26 174.54 150.61C174.39 150.96 174.32 151.38 174.32 151.88L172.43 151.9C172.43 151.29 172.52 150.72 172.7 150.2C172.89 149.68 173.15 149.22 173.49 148.83C173.83 148.44 174.22 148.14 174.68 147.93C175.15 147.71 175.66 147.6 176.22 147.6C176.91 147.6 177.52 147.74 178.05 148.03C178.59 148.32 179.14 148.72 179.71 149.23C180.14 149.62 180.51 149.91 180.83 150.11C181.16 150.3 181.51 150.39 181.9 150.39C182.31 150.39 182.66 150.28 182.95 150.07C183.25 149.86 183.49 149.57 183.65 149.19C183.82 148.81 183.91 148.39 183.91 147.9L183.93 147.89ZM300.07 155.23V157C299.91 157.05 299.68 157.11 299.4 157.15C299.13 157.2 298.79 157.23 298.4 157.23C297.87 157.23 297.38 157.12 296.94 156.91C296.49 156.7 296.14 156.35 295.87 155.85C295.61 155.35 295.48 154.68 295.48 153.84V145.98H293.16V144.32H295.48V141.24H297.65V144.32H300.02V145.98H297.65V153.86C297.65 154.29 297.72 154.61 297.85 154.83C297.98 155.05 298.15 155.19 298.37 155.26C298.58 155.33 298.81 155.37 299.05 155.37C299.23 155.37 299.42 155.35 299.61 155.32C299.81 155.28 299.97 155.25 300.07 155.23ZM270.82 139H273V157H270.82V139ZM220.16 145.87C219.74 145.31 219.19 144.87 218.53 144.56C217.87 144.25 217.09 144.09 216.19 144.09C215.48 144.09 214.79 144.24 214.13 144.52C213.47 144.8 212.87 145.23 212.35 145.8C211.83 146.36 211.41 147.05 211.11 147.86C210.81 148.66 210.65 149.58 210.65 150.61V151.1C210.65 151.99 210.79 152.81 211.06 153.56C211.33 154.31 211.72 154.96 212.23 155.51C212.75 156.06 213.36 156.48 214.07 156.79C214.79 157.09 215.59 157.24 216.47 157.24C217.31 157.24 218.03 157.12 218.64 156.89C219.26 156.66 219.78 156.35 220.2 155.98C220.62 155.61 220.97 155.21 221.24 154.8L219.93 153.76C219.53 154.28 219.07 154.7 218.53 155.01C218 155.32 217.35 155.48 216.58 155.48C215.99 155.48 215.46 155.37 214.99 155.14C214.53 154.91 214.14 154.6 213.81 154.2C213.49 153.8 213.24 153.34 213.07 152.82C212.92 152.34 212.85 151.82 212.84 151.29H221.41V150.32C221.41 149.43 221.31 148.61 221.11 147.86C220.91 147.1 220.59 146.45 220.17 145.89L220.16 145.87ZM219.23 149.5H212.89C212.93 149.18 212.99 148.87 213.07 148.59C213.23 148 213.47 147.51 213.76 147.1C214.05 146.69 214.41 146.39 214.83 146.19C215.24 145.98 215.7 145.87 216.19 145.87C216.93 145.87 217.52 146.04 217.95 146.39C218.38 146.73 218.69 147.17 218.89 147.7C219.09 148.23 219.21 148.78 219.24 149.34V149.5H219.23ZM267.23 154.23V148.32C267.23 147.37 267.03 146.59 266.62 145.97C266.22 145.34 265.67 144.86 264.96 144.55C264.26 144.24 263.44 144.08 262.52 144.08C261.75 144.08 261.06 144.19 260.43 144.41C259.81 144.62 259.28 144.91 258.84 145.28C258.4 145.64 258.07 146.04 257.83 146.49C257.6 146.94 257.48 147.39 257.48 147.84H259.65C259.65 147.49 259.76 147.16 259.99 146.86C260.22 146.56 260.54 146.31 260.95 146.12C261.36 145.93 261.85 145.84 262.39 145.84C262.98 145.84 263.47 145.94 263.87 146.14C264.27 146.34 264.57 146.63 264.76 147.01C264.96 147.38 265.06 147.81 265.06 148.31V149.32H262.92C262.05 149.32 261.27 149.41 260.56 149.59C259.86 149.77 259.26 150.04 258.76 150.39C258.26 150.73 257.88 151.17 257.61 151.69C257.34 152.21 257.21 152.8 257.21 153.48C257.21 154.16 257.39 154.82 257.74 155.39C258.1 155.95 258.6 156.4 259.24 156.74C259.89 157.08 260.64 157.24 261.5 157.24C262.19 157.24 262.8 157.12 263.35 156.89C263.9 156.65 264.38 156.35 264.78 155.99C264.91 155.87 265.01 155.75 265.12 155.64C265.13 155.77 265.13 155.88 265.15 156.02C265.21 156.43 265.3 156.77 265.41 157.02H267.67V156.83C267.52 156.49 267.41 156.08 267.33 155.6C267.26 155.12 267.22 154.67 267.22 154.25L267.23 154.23ZM263.57 154.91C263.06 155.19 262.48 155.33 261.81 155.33C261.28 155.33 260.83 155.24 260.46 155.05C260.1 154.85 259.83 154.59 259.65 154.27C259.47 153.95 259.38 153.58 259.38 153.18C259.38 152.78 259.47 152.45 259.64 152.16C259.81 151.86 260.06 151.62 260.39 151.42C260.72 151.22 261.12 151.08 261.61 150.99C262.09 150.89 262.64 150.84 263.26 150.84H265.05V153.41C264.97 153.57 264.89 153.73 264.77 153.89C264.47 154.3 264.07 154.64 263.56 154.92L263.57 154.91ZM196.89 147.77V149.12C196.89 150.1 197 150.98 197.23 151.76C197.46 152.53 197.8 153.19 198.23 153.74C198.66 154.28 199.17 154.69 199.77 154.97C200.37 155.25 201.04 155.39 201.76 155.39C202.56 155.39 203.22 155.32 203.72 155.19C204.22 155.05 204.61 154.89 204.89 154.7C205.17 154.5 205.39 154.32 205.53 154.15V150.33H201.58V148.5H207.78V154.75C207.57 155.06 207.23 155.41 206.77 155.8C206.31 156.18 205.67 156.52 204.86 156.81C204.06 157.09 203.02 157.23 201.74 157.23C200.7 157.23 199.74 157.05 198.87 156.69C198 156.32 197.25 155.79 196.61 155.1C195.98 154.4 195.49 153.55 195.13 152.55C194.79 151.54 194.61 150.4 194.61 149.13V147.81C194.61 146.54 194.76 145.4 195.06 144.4C195.36 143.4 195.81 142.55 196.4 141.86C196.99 141.16 197.7 140.62 198.56 140.27C199.41 139.9 200.39 139.72 201.49 139.72C202.79 139.72 203.89 139.95 204.76 140.4C205.64 140.85 206.33 141.46 206.82 142.25C207.32 143.04 207.64 143.94 207.78 144.95H205.52C205.42 144.33 205.22 143.77 204.91 143.26C204.61 142.75 204.19 142.35 203.63 142.04C203.08 141.73 202.36 141.57 201.48 141.57C200.69 141.57 200.01 141.71 199.43 142C198.85 142.29 198.38 142.7 198 143.24C197.62 143.78 197.34 144.43 197.16 145.2C196.98 145.97 196.89 146.83 196.89 147.79V147.77ZM233.62 146.56C233.81 147.14 233.9 147.85 233.9 148.68V156.99H231.72V148.66C231.72 148 231.62 147.46 231.43 147.07C231.23 146.66 230.95 146.37 230.57 146.19C230.19 146 229.73 145.91 229.19 145.91C228.65 145.91 228.16 146.02 227.71 146.25C227.27 146.48 226.89 146.79 226.57 147.19C226.38 147.43 226.23 147.69 226.09 147.97V157H223.92V144.32H225.97L226.04 145.91C226.04 145.91 226.08 145.84 226.11 145.8C226.56 145.25 227.1 144.83 227.73 144.53C228.36 144.22 229.06 144.07 229.83 144.07C230.45 144.07 231.02 144.16 231.52 144.33C232.02 144.49 232.45 144.76 232.8 145.13C233.16 145.5 233.43 145.97 233.62 146.56ZM255.63 144.14C255.83 144.17 255.97 144.21 256.05 144.24V146.26C255.86 146.22 255.69 146.2 255.52 146.19C255.36 146.17 255.18 146.17 254.98 146.17C254.48 146.17 254.04 146.25 253.66 146.4C253.28 146.56 252.95 146.78 252.69 147.06C252.44 147.32 252.25 147.64 252.09 148V157H249.92V144.32H252.03L252.07 145.78C252.07 145.78 252.07 145.76 252.09 145.75C252.41 145.23 252.82 144.82 253.31 144.53C253.81 144.23 254.4 144.08 255.09 144.08C255.25 144.08 255.43 144.1 255.63 144.14ZM246.15 145.86C245.73 145.3 245.19 144.86 244.52 144.55C243.86 144.24 243.08 144.08 242.18 144.08C241.47 144.08 240.78 144.23 240.12 144.51C239.46 144.79 238.86 145.22 238.34 145.79C237.82 146.35 237.4 147.04 237.1 147.85C236.8 148.65 236.64 149.57 236.64 150.6V151.09C236.64 151.98 236.78 152.8 237.05 153.55C237.32 154.3 237.71 154.95 238.22 155.5C238.74 156.05 239.35 156.47 240.06 156.78C240.78 157.08 241.58 157.23 242.46 157.23C243.3 157.23 244.02 157.11 244.63 156.88C245.25 156.65 245.77 156.34 246.19 155.97C246.61 155.59 246.96 155.2 247.23 154.79L245.92 153.75C245.52 154.27 245.06 154.69 244.52 155C243.99 155.31 243.34 155.47 242.57 155.47C241.98 155.47 241.45 155.36 240.98 155.13C240.52 154.9 240.13 154.59 239.8 154.19C239.48 153.79 239.23 153.33 239.06 152.81C238.91 152.33 238.84 151.81 238.82 151.28H247.39V150.31C247.39 149.42 247.29 148.6 247.09 147.85C246.89 147.09 246.57 146.44 246.15 145.88V145.86ZM245.23 149.49H238.89C238.93 149.17 238.99 148.86 239.07 148.58C239.23 147.99 239.46 147.5 239.76 147.09C240.06 146.68 240.41 146.38 240.83 146.18C241.24 145.97 241.7 145.86 242.19 145.86C242.93 145.86 243.52 146.03 243.95 146.38C244.38 146.72 244.69 147.16 244.89 147.69C245.09 148.22 245.21 148.77 245.24 149.33V149.49H245.23Z" fill="#303030"/>
</svg>
